<svg id="Laag_1" data-name="Laag 1" xmlns="http://www.w3.org/2000/svg" viewBox="0 0 778 518.09"><defs><style>.cls-1{fill:#f2b441;opacity:0.15;}.cls-2{fill:#f25c5c;opacity:0.14;}.cls-3{fill:#f2884b;opacity:0.21;}.cls-4{fill:#e9d9f9;}.cls-5{fill:#dcc8e8;}.cls-6{fill:#b5b2d6;}.cls-7{fill:#fff;}.cls-8{fill:#f9f9f9;}.cls-9{fill:#d9defc;}.cls-10{fill:#fefffa;}.cls-11,.cls-12,.cls-13,.cls-14,.cls-16,.cls-18,.cls-20{fill:none;}.cls-11{stroke:#e9d9f9;}.cls-11,.cls-12,.cls-13,.cls-14,.cls-16,.cls-18,.cls-20,.cls-37{stroke-linecap:round;}.cls-11,.cls-12,.cls-16,.cls-18,.cls-20{stroke-linejoin:round;}.cls-11,.cls-14,.cls-16,.cls-20{stroke-width:2px;}.cls-12,.cls-13{stroke:#9c83b5;}.cls-13,.cls-14,.cls-24,.cls-37{stroke-miterlimit:10;}.cls-13,.cls-37{stroke-width:4px;}.cls-14{stroke:#8b83b7;}.cls-15{fill:#dd4382;}.cls-16,.cls-18{stroke:#631c3c;}.cls-17{fill:#e2478e;}.cls-18,.cls-24{stroke-width:3px;}.cls-19{fill:#a0174e;}.cls-20{stroke:#b32257;}.cls-21{fill:#f22e76;}.cls-22{fill:#f8f8fa;}.cls-23{fill:#bfb2d3;}.cls-24{fill:#5288c8;stroke:#212e37;}.cls-25{fill:#d9296a;}.cls-26{fill:#f3bd99;}.cls-27{fill:#f1b289;}.cls-28{fill:#ef9a4d;}.cls-29{fill:#21283c;}.cls-30{fill:#202d3d;}.cls-31{fill:#cacce5;}.cls-32{fill:#f9ffff;}.cls-33{fill:#fdfffe;}.cls-34{fill:#242d3e;}.cls-35{fill:#b32257;}.cls-36{fill:#e8883f;}.cls-37{stroke:#e5fffc;}.cls-38{fill:#540e2b;}.cls-39{fill:#35091d;}.cls-40{fill:#8c2252;}</style></defs><path class="cls-1" d="M178.85,450.26C-57.88,396.88,89.74,111,257.79,264.41,438.16,4,600.65-95.11,711,276.65c22.55,72.67,11.09,134.09-45,173.61Z" transform="translate(0.04 -5.95)"/><path class="cls-2" d="M409.07,450.26H632.82c96.18-54.34,86.11-146.1,10.63-235.63C568.92,115.78,495.89,86.52,426,201.51,379.61,294.63,358.16,381.52,409.07,450.26Z" transform="translate(0.04 -5.95)"/><path class="cls-3" d="M336.32,450.26H593.05C597.71,355.41,556.89,299,464.68,286,382.3,283.22,332.19,327.35,336.32,450.26Z" transform="translate(0.04 -5.95)"/><path class="cls-3" d="M247.6,38.63H403C361.65,39,356,7.39,337.18,6,320.55,6,323,21.56,301,25.63c-10.07-.49-14.68-6-26.85-5.65C260.87,21.76,257.82,33.39,247.6,38.63Z" transform="translate(0.04 -5.95)"/><path class="cls-3" d="M198.06,147.85H57.85c37.32.26,42.44-23.8,59.4-24.89,15,0,12.83,11.89,32.63,15,9.08-.37,13.24-4.54,24.21-4.3C186.09,135,188.83,143.86,198.06,147.85Z" transform="translate(0.04 -5.95)"/><path class="cls-4" d="M292.62,65.86H441.45c18.36,4.41,27.25,15.93,25.94,35.11l-23,321.72c-1.34,15.23-10.24,24.15-25.66,27.63H266.07c-19.44-5.64-27.82-17.94-26.32-36.19L265.41,91.76C269.5,75.56,278.72,67.15,292.62,65.86Z" transform="translate(0.04 -5.95)"/><path class="cls-5" d="M276.57,65.86H425.4c18.36,4.41,27.25,15.93,25.93,35.11l-23,321.72c-1.34,15.23-10.24,24.15-25.66,27.63H250c-19.44-5.64-27.82-17.94-26.32-36.19L249.36,91.76C253.44,75.56,262.66,67.15,276.57,65.86Z" transform="translate(0.04 -5.95)"/><polygon class="cls-6" points="247.84 394.84 407.27 394.84 426.36 89.03 267.89 89.03 247.84 394.84"/><polygon class="cls-7" points="250.82 394.84 410.25 394.84 429.34 89.03 270.87 89.03 250.82 394.84"/><path class="cls-8" d="M261.55,309.63,376.3,294.87c3.62.13,5.94,1.47,7,4l4.19,29.93c.86,4.17-.59,6.8-4.39,7.78L270.34,351.34c-3.83.67-7.08,0-8.79-4.19l-5-31.13C256.56,312.35,258.34,310.33,261.55,309.63Z" transform="translate(0.04 -5.95)"/><path class="cls-9" d="M368.54,173.64" transform="translate(0.04 -5.95)"/><path class="cls-4" d="M281.38,127.19,412.53,127c3.35.58,4.63,2.63,4.55,5.64L415.62,168c-.28,3.54-2.11,5.25-4.91,5.83l-129.33-.55c-4.22.14-6.66-1.71-6.55-6.37l1.45-34.06C276.77,129.44,278.32,127.37,281.38,127.19Z" transform="translate(0.04 -5.95)"/><path class="cls-5" d="M369.72,133.07l-1.18,34.37c-.38,2.84,2.34,6.55,4.59,6.38h37.58c2.82-.06,4.44-2.14,4.91-5.83l1.46-35.34c0-3.22-1.42-5.18-4.55-5.64H375.37C372.67,126.86,369.93,128.37,369.72,133.07Z" transform="translate(0.04 -5.95)"/><ellipse class="cls-10" cx="392.79" cy="144.46" rx="13.95" ry="15.01"/><line class="cls-11" x1="386.18" y1="143.39" x2="390.63" y2="148.6"/><line class="cls-11" x1="400.49" y1="140.74" x2="390.63" y2="148.6"/><line class="cls-12" x1="287.99" y1="132.03" x2="362.72" y2="132.19"/><line class="cls-12" x1="287.97" y1="143.64" x2="362.7" y2="143.79"/><line class="cls-12" x1="287.94" y1="155.59" x2="324.66" y2="155.66"/><path class="cls-4" d="M276.43,193.25l131.14-.19c3.35.59,4.64,2.63,4.55,5.65l-1.45,35.34c-.28,3.54-2.12,5.25-4.92,5.82l-129.32-.54c-4.23.13-6.67-1.71-6.56-6.38l1.46-34.06C271.81,195.49,273.36,193.42,276.43,193.25Z" transform="translate(0.04 -5.95)"/><path class="cls-5" d="M364.77,199.12l-1.19,34.37c-.38,2.85,2.34,6.55,4.59,6.39h37.58c2.82-.05,4.44-2.13,4.92-5.82l1.45-35.34c0-3.22-1.42-5.18-4.55-5.65H370.41C367.71,192.91,365,194.43,364.77,199.12Z" transform="translate(0.04 -5.95)"/><ellipse class="cls-10" cx="387.84" cy="210.51" rx="13.95" ry="15.01"/><line class="cls-11" x1="381.22" y1="209.44" x2="385.68" y2="214.65"/><line class="cls-11" x1="395.54" y1="206.8" x2="385.68" y2="214.65"/><line class="cls-12" x1="283.03" y1="198.09" x2="357.77" y2="198.24"/><line class="cls-12" x1="283.01" y1="209.69" x2="357.74" y2="209.85"/><line class="cls-12" x1="282.98" y1="221.64" x2="319.71" y2="221.72"/><path class="cls-4" d="M252.55,291.66,367.3,276.89c3.62.13,5.94,1.47,7,4l4.19,29.94c.87,4.17-.58,6.8-4.39,7.78L261.33,333.37c-3.83.67-7.07,0-8.78-4.19l-5-31.13C247.56,294.38,249.34,292.36,252.55,291.66Z" transform="translate(0.04 -5.95)"/><line class="cls-12" x1="259.03" y1="294.67" x2="326.01" y2="285.52"/><line class="cls-12" x1="260.47" y1="305.17" x2="327.45" y2="296.02"/><line class="cls-12" x1="261.94" y1="315.98" x2="294.86" y2="311.48"/><line class="cls-13" x1="336.47" y1="74.95" x2="365.5" y2="74.95"/><circle class="cls-14" cx="323.16" cy="417.96" r="15.07"/><path class="cls-15" d="M51.75,402.63c18.88,33.3,71,23.07,71-22.72a19.81,19.81,0,0,0-1.13-6.51,103.3,103.3,0,0,0-20.12-34.17,20.11,20.11,0,0,1-4.72-10.8c-3.86-31.89-16.19-46-35.19-46a19.82,19.82,0,0,0-7.33,1.22c-14.89,5.91-14.69,29.83-2.41,68.15a20.17,20.17,0,0,1-.3,13.24,60.47,60.47,0,0,0-3.31,28A24.91,24.91,0,0,0,51.75,402.63Z" transform="translate(0.04 -5.95)"/><path class="cls-16" d="M84.61,453.67c2.7-44.75-2.93-90.87-15.65-138.14" transform="translate(0.04 -5.95)"/><polyline class="cls-16" points="82.82 320.31 76.01 338.93 79.42 357.06 64.05 346.37"/><line class="cls-16" x1="87.94" y1="361.98" x2="82.23" y2="376.43"/><path class="cls-17" d="M613.69,182.88c14.29-68.39,110.24-53.76,54.1,27.56-6.39,8.68-12,19.65-4.85,29.31,8,10.69,14.13,17,14.37,35.87a17.56,17.56,0,0,1-.36,3.89c-1.88,8.92-6.85,15.08-11.84,22.63a35.72,35.72,0,0,0-5.42,25.34c8.6,53.95-10.25,67.5-46.39,70.55a17.52,17.52,0,0,1-6-.53c-37.65-10.12-44-37.84-28.73-77.72a17.68,17.68,0,0,1,1-2.2c7.12-13,9.06-28.77,3.15-48.82a17.36,17.36,0,0,0-.85-2.25c-11.61-25.56-10-45.46,5.29-59.49a16.75,16.75,0,0,1,4.63-3C604,198.73,612.21,192,613.69,182.88Z" transform="translate(0.04 -5.95)"/><path class="cls-18" d="M636.57,196.05c-25.69,88.18-34.16,173.25-20.34,254.27" transform="translate(0.04 -5.95)"/><polyline class="cls-18" points="610.85 210.24 622.98 244.18 616.56 279.1 645.77 259.47"/><line class="cls-18" x1="602.01" y1="287.66" x2="612.57" y2="309.87"/><path class="cls-19" d="M700.47,408.93c-18-39.67-24.12-64.42-4-55.83-5.25-35-2.36-60,23.2-57.29,18.2,3.65,22.23,16.23,13.6,36.8l-12.75,24.27a25.46,25.46,0,0,0-4.61,8.76c-.17,3.95-1.11,8.14,1.07,11.38,3.4,5.08,3.51,9.18,3.11,11.42C718,397.49,710.1,403.65,700.47,408.93Z" transform="translate(0.04 -5.95)"/><path class="cls-20" d="M700.48,450.33c-.89-44.59.68-85.79,10.32-115.9" transform="translate(0.04 -5.95)"/><path class="cls-21" d="M215.8,63c10.27-11.47,6-31.44-12.42-35.09H148.26c-22.94,5.09-23.42,36.07,0,42.27h55.12a26.61,26.61,0,0,0,6.11-2.29l10.88,6.53Z" transform="translate(0.04 -5.95)"/><circle class="cls-22" cx="160.22" cy="43.08" r="4.64"/><circle class="cls-22" cx="176.47" cy="43.08" r="4.64"/><circle class="cls-22" cx="192.72" cy="43.08" r="4.64"/><path class="cls-23" d="M261.85,498.07l-5.28,14.52c-.07,2.84,4.32,10,6.63,10.35l39.05,1c2.65.41,4.19-.91,4.77-3.73l1.86-17.4c.74-3.32-3.22-12-6.11-12.57l-35.32,4.18Q262.89,494,261.85,498.07Z" transform="translate(0.04 -5.95)"/><path class="cls-5" d="M258.85,491.93l-2.28,20.41c-.07,2.84,1.31,4.14,3.62,4.45l39.06,1c2.64.41,4.18-.91,4.76-3.73l1.87-17.4c.6-3.32-.36-5.51-3.11-6.43l-38.33-2Q259.88,487.86,258.85,491.93Z" transform="translate(0.04 -5.95)"/><line class="cls-24" y1="445.37" x2="778" y2="445.37"/><path d="M58.85,449.91,78,449.05l.86,9.93-8.75.43c-.34,9.21.68,17.44-5.61,19.66H61.33Z" transform="translate(0.04 -5.95)"/><path d="M199.58,482.28l1.17-19.1,10,.19-.5,8.75c9.12,1.31,17.41,1.17,18.95,7.67l-.33,3.11Z" transform="translate(0.04 -5.95)"/><path class="cls-25" d="M120.58,384.84l18,57.47-65.9,4.22,2.21,15.08,79.66-2.44c7.25-.38,11.25-4.2,11.32-12.2l-4.66-46.6L203.57,399l-6.88,67,17.69,1.33,17.37-73.66c1.82-11.81-1.71-18.87-12.2-19.75l-45.71-1.56C163.77,386.55,144.3,388.46,120.58,384.84Z" transform="translate(0.04 -5.95)"/><circle class="cls-26" cx="255.03" cy="307.61" r="9.77"/><rect class="cls-26" x="238.78" y="313.85" width="14.46" height="11.04" transform="translate(-126.68 159.84) rotate(-30)"/><path class="cls-26" d="M148.81,289.74l.88,5.72-1.76,10,16.54,4.66.71-11.09c11.31-2.49,15.91-11.61,15.92-25.25l-9.94-6.34Z" transform="translate(0.04 -5.95)"/><path class="cls-27" d="M149.69,295.46c4.1,3.61,9.29,4.75,15.49,3.61l-.71,11.09-16.54-4.66Z" transform="translate(0.04 -5.95)"/><path class="cls-28" d="M145.31,303.19l22.36,6,29.07,29.31,44-26.83,9.19,15.65-47.7,29.82c-3.85,3-7.66,3.34-11.43,0l-18.14-16.9,2.73,32.26c-11.6,15.22-32.89,17.51-59.13,13.21C111.58,346.82,119.19,317.68,145.31,303.19Z" transform="translate(0.04 -5.95)"/><path class="cls-29" d="M175.88,258.51c-4.91-4.59-11-6.75-18.59-5.95l-.09.07a16.85,16.85,0,0,0,.83-5.2c0-9-7-16.3-15.71-16.3s-15.71,7.3-15.71,16.3a16,16,0,0,0,14.81,16.25c-5.38,14.14-3.53,25.11,7.68,32,11.26,3.93,18,1.29,19.51-9.07-8.05-2.91-4.54-12.26,2.61-10.51l.41-4.52a22.37,22.37,0,0,0,9.27,2C196.48,272.12,194.61,255.9,175.88,258.51Z" transform="translate(0.04 -5.95)"/><path class="cls-30" d="M544,479.42l1.09,8.38c-9.71,2-18.3,4.65-19,11.14l32.06-4.34-2.48-17Z" transform="translate(0.04 -5.95)"/><polygon class="cls-31" points="526.11 495.75 558.83 491.35 558.17 488.64 526.11 492.99 526.11 495.75"/><circle class="cls-32" cx="551.29" cy="480.34" r="2.35"/><path class="cls-30" d="M476,472.14l.28,8.45c-9.86,1.06-18.66,2.86-20,9.26l32.33-1.24-.83-17.17Z" transform="translate(0.04 -5.95)"/><polygon class="cls-31" points="456.06 486.64 489.04 485.41 488.65 482.65 456.32 483.89 456.06 486.64"/><circle class="cls-32" cx="482.61" cy="473.73" r="2.35"/><path class="cls-26" d="M472.94,188.51c-3.65,23.63-2.14,36.39,18.23,37.3v8.31l-4.94-.23-4.17,6.59,16.69,12.23,12.47-10.15v-9.17l-1.46-1.1H505.7l1-21.5c7.53.36,9.86-8.24,3.63-11.4l-7.95-11.62-29.48-3.3Z" transform="translate(0.04 -5.95)"/><path class="cls-27" d="M506.74,210.79c-2.2,9.35-7.23,14.59-15.57,15v7.76l-4.94.32-4.17,6.59,13.84,9.16,13.16-5.32,2.16-10.93-1.46-1.1H505.7Z" transform="translate(0.04 -5.95)"/><rect class="cls-26" x="437.98" y="280.98" width="9.85" height="10.79"/><path class="cls-33" d="M474.72,210.47l15.66.45v1.46c-1,7.08-15,6.72-15.66-.41Z" transform="translate(0.04 -5.95)"/><path class="cls-34" d="M500.27,189.6l.05,13.07,2.84,1.08c1.19-3.49,3.89-5.42,7.42-4.25l1.23-13.13c-.39-3.59-2.19-6.05-6.39-6.61l-12.92-.47c-6.35-1.21-5.41-9.33-12.85-10.31-13.7,0-17.54,19.47,0,20.93Z" transform="translate(0.04 -5.95)"/><path class="cls-25" d="M527.28,243.94c-3-6.6-8.41-11-17.62-11.65-1.18,16.33-24.36,16.86-23.43,1.6-8.78,5.79-18.64,19.08-28.68,33.63l-24-3.21,2.1,18.34,8.53.3-.29,17.32,36.76.84L483.32,316c18.7,8.51,36.82,8,56.62,0Zm-59,39.6,9-13.11,1.25,13.11Z" transform="translate(0.04 -5.95)"/><path class="cls-35" d="M476.06,243.11l1.17,27.32-9,13.11-33.69-.92-1-18.31,24,3.21A251.66,251.66,0,0,1,476.06,243.11Z" transform="translate(0.04 -5.95)"/><circle class="cls-36" cx="407.38" cy="269.59" r="28.38"/><circle class="cls-26" cx="434.15" cy="285.88" r="8.75"/><line class="cls-37" x1="393.86" y1="268.11" x2="403.31" y2="277.59"/><line class="cls-37" x1="422.75" y1="261.93" x2="403.31" y2="277.59"/><path class="cls-38" d="M484.54,316.53l-16.8,67,3.11,81.05h21.23l-1.29-77.69,15.8-50,5.69.52,6.48,56.7,17.6,79,21.5-3.36-15.8-79.5-5.7-73C519.19,323.8,502.08,323.13,484.54,316.53Z" transform="translate(0.04 -5.95)"/><path class="cls-35" d="M480.63,301.11h19.68c3.78-.12,5.31-3.24,6.34-6.67L521,261.59l-12,38.38c-.78,3-2.64,5.18-6.17,5.53H481.44Z" transform="translate(0.04 -5.95)"/><polygon class="cls-39" points="501.1 330.45 503.51 340.87 506.63 331 501.1 330.45"/><polygon class="cls-40" points="536.1 477.68 561.81 472.89 560.16 463.4 534.46 467.5 536.1 477.68"/><polygon class="cls-40" points="468.39 468.56 494.55 468.21 494.53 458.57 468.5 458.24 468.39 468.56"/></svg>