<?xml version="1.0" encoding="utf-8"?>
<!-- Generator: Adobe Illustrator 24.3.0, SVG Export Plug-In . SVG Version: 6.00 Build 0)  -->
<svg version="1.1" id="Laag_1" xmlns="http://www.w3.org/2000/svg" xmlns:xlink="http://www.w3.org/1999/xlink" x="0px" y="0px"
	 viewBox="0 0 981 794" style="enable-background:new 0 0 981 794;" xml:space="preserve">
<style type="text/css">
	.st0{fill:#E9D9F9;}
	.st1{fill:#DCC8E8;}
	.st2{fill:none;stroke:#9C83B5;stroke-width:4;stroke-linecap:round;stroke-miterlimit:10;}
	.st3{fill:#9C83B5;}
	.st4{fill:#FFFFFF;}
	.st5{fill:#E2478E;}
	.st6{fill:#BF377C;}
	.st7{fill:#EF9A4D;}
	.st8{fill:url(#SVGID_1_);}
	.st9{fill:#D663A2;}
	.st10{fill:#EF8FC9;}
	.st11{fill:url(#SVGID_2_);}
	.st12{fill:url(#SVGID_3_);}
	.st13{fill:url(#SVGID_4_);}
	.st14{fill:url(#SVGID_5_);}
	.st15{fill:url(#SVGID_6_);}
	.st16{fill:url(#SVGID_7_);}
	.st17{opacity:0.55;fill:url(#SVGID_8_);}
	.st18{fill:url(#SVGID_9_);}
	.st19{opacity:0.31;}
	.st20{fill:none;stroke:#BF377C;stroke-linecap:round;stroke-miterlimit:10;}
	.st21{fill:url(#SVGID_10_);}
	.st22{fill:#F2ADD9;}
	.st23{opacity:0.23;}
	.st24{fill:url(#SVGID_11_);}
	.st25{fill:url(#SVGID_12_);stroke:url(#SVGID_13_);stroke-miterlimit:10;}
	.st26{fill:#F1EAF9;}
	.st27{fill:#BDA7D6;}
	.st28{fill:url(#SVGID_14_);}
	.st29{fill:url(#SVGID_15_);}
	.st30{opacity:0.7;fill:url(#SVGID_16_);}
	.st31{opacity:0.67;fill:#EF9A4D;}
	.st32{fill:#D68441;}
	.st33{opacity:0.35;fill:#EF9A4D;}
	.st34{opacity:0.68;fill:#EF9A4D;}
	.st35{opacity:0.21;fill:#F2884B;enable-background:new    ;}
	.st36{opacity:0.41;fill:#F2884B;enable-background:new    ;}
	.st37{opacity:0.56;fill:#F2884B;enable-background:new    ;}
	.st38{opacity:0.66;}
	.st39{fill:none;stroke:#9C83B5;stroke-width:2;stroke-linecap:round;stroke-miterlimit:10;}
	.st40{fill:#F78323;}
	.st41{opacity:0.58;fill:#EF9A4D;}
	.st42{opacity:0.63;fill:none;stroke:url(#SVGID_17_);stroke-width:3;stroke-linecap:round;stroke-miterlimit:10;}
	.st43{opacity:0.63;fill:none;stroke:url(#SVGID_18_);stroke-width:3;stroke-linecap:round;stroke-miterlimit:10;}
	.st44{opacity:0.63;fill:none;stroke:url(#SVGID_19_);stroke-width:3;stroke-linecap:round;stroke-miterlimit:10;}
	.st45{opacity:0.58;fill:none;stroke:#EF9A4D;stroke-width:13;stroke-linecap:round;stroke-miterlimit:10;}
	.st46{fill:none;stroke:#EF9A4D;stroke-width:3;stroke-linecap:round;stroke-miterlimit:10;}
	.st47{fill:#D1782F;}
	.st48{opacity:0.75;fill:#EF8FC9;}
	.st49{fill:#D8559D;}
	.st50{fill:#932160;}
	.st51{fill:#590C33;}
	.st52{fill:#7F1646;}
	.st53{fill:#DDAC8A;}
	.st54{fill:#F3BD99;}
	.st55{fill:#242D3E;}
	.st56{fill:none;stroke:#F3BD99;stroke-width:7;stroke-linecap:round;stroke-miterlimit:10;}
	.st57{fill:#1A1B34;}
	.st58{fill:#CFBFE2;}
	.st59{fill:#B79DC9;}
	.st60{fill:none;stroke:#F3BD99;stroke-width:6;stroke-linecap:round;stroke-miterlimit:10;}
	.st61{fill:#D9296A;}
	.st62{fill:#E48700;}
</style>
<g>
	<path class="st0" d="M461.96,45.1l-9.56-5.31c-2.15-0.88-4.58-0.82-7.23,0l-186.19,108.4c-8.92,5.22-13.55,13.62-14.67,24.66
		l-0.43,432.96c1.28,9.08,6.84,14.2,14.88,17c-1.91-2.01-3.35-5.05-3.61-10.63l-1.04-433.89c0.85-11.02,4.86-19.4,13.8-23.51
		L455.51,45.9C457.58,44.76,459.73,44.52,461.96,45.1z"/>
	<path class="st1" d="M461.96,45.1c5.84,1.84,8.47,6.67,8.88,13.56l0.33,168.63l-7.79-4.52l0.25-161.55
		c-1.19-6.25-4.36-8.04-9.55-5.28l-33.92,19.09c-1.14,11.23-6.75,20.15-17.59,26.38l-82.66,48.49c-4,2.58-7.85,2.37-11.56-0.75
		l-4.77-6.28l-30.15,17.34c-7.97,3.49-11.11,10.77-11.31,20.35l-0.25,426.36c0.3,6.95,2.82,10.43,9.55,7.29l131.15-75.12v7.79
		l-131.9,75.94c-3.54,1.76-7.59,1.44-11.91,0c-2.42-2.73-3.53-6.34-3.61-10.63l-1.04-433.89c0.01-10.62,4.97-18.23,13.8-23.51
		L455.51,45.9C457.76,45.13,459.92,44.83,461.96,45.1z"/>
	<line class="st2" x1="335.58" y1="129.55" x2="390.36" y2="98.21"/>
	<ellipse class="st3" cx="427.83" cy="55.74" rx="4.27" ry="2.83"/>
	<path class="st4" d="M463.38,222.76l-10.36-5.79c-1.79-0.56-3.53-0.6-5.19,0l-46.05,26.57c-4.49,2.66-6.95,7.23-7.72,13.41
		l0.25,53.52c-0.18,2.1,0.34,3.56,1.52,4.43l17.33,9.62c2.8,2.7,6.03,2.19,9.49,0l28.72-16.45l0.29,19.83l5.65,4.05
		c0.13,0.58,0.05,1.08-0.32,1.49l-51.48,28.99c-1.55,1.04-2.64,2.47-2.77,4.69l0.2,29.89l-0.36,142.06l-131.15,75.12
		c-5.79,2.81-9.18,0.79-9.55-7.29l0.25-426.36c0.39-10.16,3.76-17.34,11.31-20.35l30.15-17.34l4.77,6.28
		c3.59,3.25,7.47,3.15,11.56,0.75l82.66-48.49c10.6-6.33,16.65-15.03,17.59-26.38l33.92-19.09c5.74-2.81,8.6-0.48,9.55,5.28
		L463.38,222.76z"/>
	<path class="st5" d="M413.17,323.28c0,0.92,0.49,1.77,1.27,2.25c2.46,1.51,5.26,0.77,8.22-1.02l28.72-16.45l19.47-10.88
		c0.21-0.12,0.41-0.25,0.58-0.42c2.38-2.4,3.22-7.22,2.9-13.86v-50.34c-0.3-4.57-2.52-6.53-6.6-4.58c-0.18,0.09-0.39,0.15-0.56,0.25
		l-45.94,26.7c-0.09,0.05-0.18,0.1-0.27,0.13c-5.01,2.05-7.73,5.94-7.79,11.97V323.28z"/>
	<path class="st6" d="M471.17,227.28l-18.14-10.31c-1.79-0.53-3.53-0.62-5.19,0l-46.05,26.57c-4.79,3.2-7.24,7.74-7.72,13.41
		l0.25,53.52c-0.21,2.01,0.32,3.47,1.52,4.43l18.6,10.63c-0.73-0.36-1.12-1.16-1.27-2.25v-56.25c0.07-5.65,2.45-9.77,7.79-11.97
		l46.21-26.84C468.59,227.7,469.93,227.37,471.17,227.28z"/>
	<path class="st7" d="M403.22,347.65l32.18-18.22c2.08-0.96,3.72-0.67,4.88,0.98l0.73,15.87c0.24,2.25-0.56,3.75-2.2,4.64
		l-33.2,20.26c-2.94,1.54-4.98,1.3-5.86-1.22l-0.24-18.31C399.89,349.69,401.57,348.4,403.22,347.65z"/>
	<linearGradient id="SVGID_1_" gradientUnits="userSpaceOnUse" x1="418.6783" y1="486.4326" x2="279.6419" y2="486.4326">
		<stop  offset="0" style="stop-color:#EF9A4D"/>
		<stop  offset="0.1635" style="stop-color:#F0A35D"/>
		<stop  offset="0.1768" style="stop-color:#F0A25B"/>
		<stop  offset="0.3168" style="stop-color:#F0A45F"/>
		<stop  offset="0.4507" style="stop-color:#F1AB6A"/>
		<stop  offset="0.5821" style="stop-color:#F3B67E"/>
		<stop  offset="0.712" style="stop-color:#F6C599"/>
		<stop  offset="0.8407" style="stop-color:#F9D9BC"/>
		<stop  offset="0.967" style="stop-color:#FDF1E6"/>
		<stop  offset="1" style="stop-color:#FEF8F2"/>
		<stop  offset="1" style="stop-color:#FFFFFF"/>
		<stop  offset="1" style="stop-color:#F6F6F6;stop-opacity:0"/>
	</linearGradient>
	<path class="st8" d="M291.16,464.53l127.52-73.89l-3.18,116.39l-122.35,73.09c-7.25,3.65-12.23,2.86-13.51-5.16V484.4
		C280.8,473.82,284.88,467.54,291.16,464.53z"/>
	<polygon class="st6" points="401.91,367 450.16,394.96 450.16,574.45 401.91,546.04 	"/>
	<polygon class="st9" points="450.16,394.96 524.12,353.48 524.12,532.96 450.16,574.45 	"/>
	<polygon class="st10" points="401.91,367 450.16,394.96 524.12,353.48 475.2,326.58 	"/>
	<g>
		<path class="st7" d="M702.94,414.93l-11.82-6.09c-0.51-0.27-1.09-0.4-1.68-0.4h-5.07c-0.64,0-1.27,0.17-1.82,0.49l-5.09,2.94
			c-0.53,0.31-1.13,0.47-1.75,0.48l-8.28,0.16c-0.64,0.01-1.27-0.14-1.83-0.45l-29.71-16.32c-0.83-0.45-1.42-1.21-1.65-2.09
			l-0.12-0.47c-0.33-1.25,0.12-2.56,1.16-3.39l8.06-6.4c0.8-0.64,1.27-1.58,1.27-2.57v-0.59c0-1.19-0.67-2.3-1.75-2.9l-11.07-6.14
			c-0.57-0.31-1.21-0.47-1.86-0.45l-5.65,0.15c-0.6,0.02-1.18,0.17-1.69,0.46l-10.54,5.92c-0.73,0.41-1.28,1.06-1.55,1.83
			l-0.14,0.41c-0.41,1.17-0.11,2.46,0.78,3.36l1.46,1.47c0.25,0.25,0.53,0.46,0.85,0.63l5.08,2.7c0.88,0.47,1.51,1.28,1.72,2.22l0,0
			c0.18,0.8,0.05,1.63-0.37,2.34l-0.66,1.11c-0.34,0.58-0.86,1.05-1.49,1.35l-2.98,1.42c-0.36,0.17-0.75,0.28-1.15,0.33l-5.32,0.61
			c-0.53,0.06-1.07,0.01-1.58-0.16l-3.5-1.16c-0.28-0.09-0.55-0.22-0.8-0.38l-5.02-3.19c-0.08-0.05-0.16-0.1-0.24-0.14l-4.93-2.61
			c-0.3-0.16-0.62-0.28-0.96-0.35l-3.82-0.79c-0.25-0.05-0.5-0.08-0.75-0.08h-5.02c-0.48,0-0.96,0.09-1.4,0.28l-3.9,1.61
			c-0.09,0.04-0.17,0.07-0.25,0.12l-6,3.05l-5.05,2.41c-0.17,0.08-0.33,0.17-0.49,0.28l-3.14,2.16c-0.2,0.14-0.39,0.3-0.56,0.47
			l-0.77,0.82c-0.53,0.56-0.84,1.27-0.9,2.02l-0.05,0.65c-0.05,0.72,0.14,1.44,0.56,2.04l1.12,1.65c0.32,0.47,0.76,0.86,1.29,1.13
			l4.51,2.31l5.42,3.13c0.2,0.12,0.39,0.25,0.56,0.4l1.26,1.11c0.72,0.63,1.13,1.53,1.13,2.46v0.26c0,0.89-0.37,1.74-1.03,2.37
			l-2.01,1.91c-0.29,0.27-0.62,0.49-0.98,0.66l-3.12,1.41c-0.14,0.06-0.28,0.13-0.41,0.21l-2.59,1.6c-0.45,0.28-0.83,0.65-1.11,1.09
			l-0.17,0.27c-0.41,0.65-0.58,1.41-0.47,2.17l0.06,0.44c0.12,0.85,0.57,1.62,1.27,2.16l1.94,1.5c0.16,0.12,0.33,0.23,0.51,0.33
			l5.24,2.77l3.88,2.02c0.4,0.21,0.84,0.34,1.3,0.39l4.18,0.44c0.43,0.05,0.86,0.02,1.28-0.09l3.39-0.84
			c0.45-0.11,0.87-0.31,1.24-0.57l5.7-4.11c0.32-0.23,0.68-0.41,1.06-0.52l3.33-1.01c0.39-0.12,0.79-0.17,1.19-0.16l4.84,0.16
			c0.18,0.01,0.36,0.03,0.53,0.06l3.66,0.66c0.24,0.04,0.48,0.11,0.71,0.2l3.54,1.42l2.84,1.18c0.28,0.12,0.55,0.27,0.79,0.45
			l2.3,1.76c0.26,0.2,0.55,0.36,0.87,0.48l3.59,1.4c0.29,0.11,0.59,0.19,0.9,0.22l4.13,0.49c0.2,0.02,0.41,0.03,0.61,0.02l3.07-0.15
			c0.46-0.02,0.92-0.13,1.34-0.32l3.47-1.57c0.12-0.06,0.25-0.12,0.36-0.19l5.24-3.14c0.07-0.04,0.14-0.08,0.21-0.11l5.04-2.59
			c0.11-0.05,0.21-0.11,0.31-0.18l4.85-3.14c0.07-0.05,0.15-0.09,0.22-0.13l5.2-2.85l4.46-2.61c0.55-0.32,1.19-0.5,1.84-0.5h4.11
			l4.78,0.17c0.48,0.02,0.96,0.13,1.4,0.33l4.85,2.22l3.52,1.68c0.1,0.05,0.21,0.09,0.32,0.13l3.52,1.28
			c0.4,0.15,0.82,0.22,1.25,0.22h3.15c0.59,0,1.18-0.14,1.7-0.41l3.29-1.72l4.14-2.06c0.1-0.05,0.2-0.1,0.29-0.16l3.18-1.98
			c0.87-0.54,1.45-1.42,1.57-2.41l0.13-1.05C704.93,416.91,704.21,415.59,702.94,414.93z"/>
		<path class="st7" d="M643.72,458.21l-10.61-5.48c-0.49-0.25-1.02-0.4-1.57-0.44l-3.46-0.23c-0.29-0.02-0.59-0.01-0.88,0.04
			l-3.89,0.6c-0.48,0.07-0.95,0.24-1.37,0.48l-7.98,4.56c-0.76,0.44-1.35,1.11-1.65,1.91l0,0c-0.23,0.62-0.28,1.28-0.16,1.92
			l0.17,0.83c0.19,0.93,0.75,1.76,1.56,2.31l5.12,3.45c0.2,0.14,0.42,0.25,0.64,0.35l5.44,2.33c0.5,0.21,1.04,0.32,1.58,0.32h3.21
			c0.25,0,0.49-0.02,0.73-0.07l4.23-0.78c0.32-0.06,0.62-0.15,0.91-0.28l5.2-2.34c0.16-0.07,0.32-0.15,0.46-0.25l2.45-1.52
			c0.99-0.62,1.63-1.64,1.73-2.77l0.12-1.42C645.85,460.29,645.07,458.91,643.72,458.21z"/>
	</g>
	<linearGradient id="SVGID_2_" gradientUnits="userSpaceOnUse" x1="422.5854" y1="282.2088" x2="472.3646" y2="282.2088">
		<stop  offset="0.0329" style="stop-color:#F2EBF7"/>
		<stop  offset="0.9299" style="stop-color:#DCC9F2"/>
	</linearGradient>
	<path class="st11" d="M422.59,312.27l49.78-27.13c-5.08-6.87-11.59-11.69-22.93-9.55c2.62-1.86,4.66-4.94,5.4-8.67
		c1.37-6.91-2.19-13.44-7.96-14.59c-5.77-1.14-11.55,3.53-12.92,10.45c-1.37,6.91,2.19,13.44,7.96,14.59
		c0.87,0.17,1.74,0.2,2.6,0.12l-8.02,3.85C428.27,291.25,422.98,301.5,422.59,312.27z"/>
	<g>
		<polygon class="st10" points="456.21,427.19 487.82,445.35 559.75,405.39 525.6,387.59 		"/>
		<polygon class="st6" points="456.21,427.19 456.21,435.9 487.4,454.45 487.82,445.35 		"/>
		<linearGradient id="SVGID_3_" gradientUnits="userSpaceOnUse" x1="487.3985" y1="429.9218" x2="559.7513" y2="429.9218">
			<stop  offset="0.0329" style="stop-color:#BF377C"/>
			<stop  offset="0.9299" style="stop-color:#EF8FC9"/>
		</linearGradient>
		<polygon class="st12" points="487.4,454.45 557.74,416.47 559.75,415.58 559.75,405.39 487.82,445.35 		"/>
	</g>
	<g>
		<polygon class="st10" points="484.4,466.79 516,484.95 587.93,444.99 553.78,427.19 		"/>
		<polygon class="st6" points="484.4,466.79 484.4,475.5 515.58,494.05 516,484.95 		"/>
		<linearGradient id="SVGID_4_" gradientUnits="userSpaceOnUse" x1="515.5804" y1="469.5199" x2="587.9332" y2="469.5199">
			<stop  offset="0.0329" style="stop-color:#BF377C"/>
			<stop  offset="0.9299" style="stop-color:#EF8FC9"/>
		</linearGradient>
		<polygon class="st13" points="515.58,494.05 585.92,456.07 587.93,455.18 587.93,444.99 516,484.95 		"/>
	</g>
	<g>
		<polygon class="st10" points="512.21,506.38 543.81,524.55 615.74,484.59 581.59,466.79 		"/>
		<polygon class="st6" points="512.21,506.38 512.21,515.09 543.39,533.65 543.81,524.55 		"/>
		<linearGradient id="SVGID_5_" gradientUnits="userSpaceOnUse" x1="543.3901" y1="509.118" x2="615.7429" y2="509.118">
			<stop  offset="0.0329" style="stop-color:#BF377C"/>
			<stop  offset="0.9299" style="stop-color:#EF8FC9"/>
		</linearGradient>
		<polygon class="st14" points="543.39,533.65 613.73,495.67 615.74,494.77 615.74,484.59 543.81,524.55 		"/>
	</g>
	<g>
		<polygon class="st10" points="540.46,545.1 572.06,563.26 643.99,523.3 609.85,505.5 		"/>
		<polygon class="st6" points="540.46,545.1 540.46,553.81 571.64,572.36 572.06,563.26 		"/>
		<linearGradient id="SVGID_6_" gradientUnits="userSpaceOnUse" x1="571.6412" y1="547.8293" x2="643.9941" y2="547.8293">
			<stop  offset="0.0329" style="stop-color:#BF377C"/>
			<stop  offset="0.9299" style="stop-color:#EF8FC9"/>
		</linearGradient>
		<polygon class="st15" points="571.64,572.36 641.98,534.38 643.99,533.48 643.99,523.3 572.06,563.26 		"/>
	</g>
	<g>
		<polygon class="st10" points="568.01,583.2 599.62,601.36 671.55,561.4 637.4,543.6 		"/>
		<polygon class="st6" points="568.01,583.2 568.01,591.91 599.19,610.46 599.62,601.36 		"/>
		<linearGradient id="SVGID_7_" gradientUnits="userSpaceOnUse" x1="599.1937" y1="585.9322" x2="671.5465" y2="585.9322">
			<stop  offset="0.0329" style="stop-color:#BF377C"/>
			<stop  offset="0.9299" style="stop-color:#EF8FC9"/>
		</linearGradient>
		<polygon class="st16" points="599.19,610.46 669.53,572.48 671.55,571.59 671.55,561.4 599.62,601.36 		"/>
	</g>
	<linearGradient id="SVGID_8_" gradientUnits="userSpaceOnUse" x1="96.3619" y1="427.1844" x2="272.2976" y2="427.1844">
		<stop  offset="0.0329" style="stop-color:#BF377C"/>
		<stop  offset="0.9299" style="stop-color:#EF8FC9"/>
	</linearGradient>
	<path class="st17" d="M251.64,356.85l-136.47,78.93c-10.84,5.87-16.91,14.73-18.81,26.19v29.14c1.44,10.27,8.35,11.68,19.92,5.53
		l100.69-57.54l-5.53,30.98l36.88-49.79l12.17-8.48c7.04-6.74,10.89-16.03,11.8-27.66v-17.34
		C269.2,354.16,262.2,351.11,251.64,356.85z M182.95,440.62l-66.92,38v-6.84l66.92-38.24V440.62z M252,382.82l-136.6,77.56v-5.9
		L252,376.11V382.82z"/>
	<path class="st10" d="M307.59,610.67l73.94-42.97c3.55-1.78,7-1.9,10.33,0l77.94,44.63c4.5,2.09,5.33,4.43,2.66,6.99l-72.61,42.63
		c-4.05,2.63-8.55,2.24-13.32,0L307.59,617C305.05,615.04,305.36,612.91,307.59,610.67z"/>
	<linearGradient id="SVGID_9_" gradientUnits="userSpaceOnUse" x1="305.7929" y1="656.8536" x2="474.0247" y2="656.8536">
		<stop  offset="0.0329" style="stop-color:#BF377C"/>
		<stop  offset="0.9299" style="stop-color:#EF8FC9"/>
	</linearGradient>
	<path class="st18" d="M305.79,614.27l0.01,33.04c-0.05,1.54,0.26,2.69,0.81,3.56l81.1,47.11c3.9,2.07,7.79,2.03,11.66-0.65
		l71.6-41.87c1.32-0.75,3.39-2.91,3.01-4.06v-35.18c0.07,1.29-0.64,2.24-1.51,3.11l-72.61,42.63c-4.17,2.57-8.64,2.29-13.32,0
		L307.59,617C306.76,616.36,305.89,615.22,305.79,614.27z"/>
	<g class="st19">
		<path class="st20" d="M305.8,620.08l81.44,47.69c4.65,2.06,9.24,2.12,13.77,0l72.98-43.76"/>
		<path class="st20" d="M305.8,625.16l81.44,47.69c4.65,2.06,9.24,2.12,13.77,0l72.98-43.76"/>
		<path class="st20" d="M305.8,629.69l81.44,47.69c4.65,2.06,9.24,2.12,13.77,0l72.98-43.76"/>
		<path class="st20" d="M305.8,634.77l81.44,47.69c4.65,2.06,9.24,2.12,13.77,0l72.98-43.76"/>
		<path class="st20" d="M305.8,639.83l81.44,47.69c4.65,2.06,9.24,2.12,13.77,0l72.98-43.76"/>
		<path class="st20" d="M305.8,644.92l81.44,47.69c4.65,2.06,9.24,2.12,13.77,0l72.98-43.76"/>
	</g>
	<linearGradient id="SVGID_10_" gradientUnits="userSpaceOnUse" x1="648.7159" y1="513.8857" x2="820.485" y2="513.8857">
		<stop  offset="0.0329" style="stop-color:#BF377C"/>
		<stop  offset="0.9299" style="stop-color:#F2ADD9"/>
	</linearGradient>
	<path class="st21" d="M648.73,476.6v21.09c-0.09,1.27,0.24,2.29,1.01,3.05l81.1,47.41c6.03,4.03,11.69,4.01,16.98,0l70.03-42.12
		c1.78-1.39,2.83-2.9,2.6-4.59l0-22.36"/>
	<path class="st22" d="M650.56,473.48l75.5-44.76c3.62-1.86,7.15-1.98,10.54,0l79.58,46.5c4.59,2.18,5.44,4.61,2.72,7.29
		l-74.14,44.41c-4.14,2.74-8.73,2.33-13.6,0l-80.6-46.84C647.96,478.03,648.28,475.82,650.56,473.48z"/>
	<g class="st23">
		<path class="st20" d="M648.96,483.29l82.83,49.68c4.73,2.14,9.4,2.21,14,0l74.23-45.58"/>
		<path class="st20" d="M648.96,488.58l82.83,49.68c4.73,2.14,9.4,2.21,14,0l74.23-45.58"/>
		<path class="st20" d="M648.96,493.29l82.83,49.68c4.73,2.14,9.4,2.21,14,0l74.23-45.58"/>
	</g>
	<linearGradient id="SVGID_11_" gradientUnits="userSpaceOnUse" x1="608.631" y1="309.882" x2="876.7845" y2="155.0634">
		<stop  offset="0.0329" style="stop-color:#F2EBF7"/>
		<stop  offset="0.9299" style="stop-color:#DCC9F2"/>
	</linearGradient>
	<path class="st24" d="M592.11,51.45l0.49,213.73c-1.6,18.21,4.87,30.2,17.84,37.18l238.42,136.81c15.3,7.36,28.22,5.97,37.98-7.06
		c4.39-5.86,6.63-13.06,6.63-20.38V192.32c-0.56-12.19-5.48-21.06-15.86-25.78L634.24,26.49c-2.25-1.29-4.68-2.24-7.22-2.79
		c-20.03-4.31-31.26,4.73-34.77,25.96C592.15,50.25,592.11,50.85,592.11,51.45z"/>
	<linearGradient id="SVGID_12_" gradientUnits="userSpaceOnUse" x1="616.2955" y1="303.1475" x2="863.5247" y2="160.4096">
		<stop  offset="0.0329" style="stop-color:#F2EBF7"/>
		<stop  offset="0.9299" style="stop-color:#DCC9F2"/>
	</linearGradient>
	<linearGradient id="SVGID_13_" gradientUnits="userSpaceOnUse" x1="615.8625" y1="303.3975" x2="863.9577" y2="160.1596">
		<stop  offset="0" style="stop-color:#DCC9F2"/>
		<stop  offset="0.4107" style="stop-color:#DCC9F2"/>
		<stop  offset="1" style="stop-color:#F2EBF7"/>
	</linearGradient>
	<path class="st25" d="M601.07,66.71l0.45,194.11c0,0.75-0.03,1.5-0.09,2.24c-1.12,16.16,4.85,26.87,16.54,33.15l218.7,125.49
		c0.75,0.43,1.51,0.83,2.29,1.19c14.12,6.4,25.98,4.49,34.85-8.46c3.36-4.9,5.11-10.74,5.11-16.69V194.75
		c-0.5-10.84-4.74-18.84-13.63-23.29c-0.65-0.33-1.31-0.66-1.95-1.02L640.88,42.43c-3.04-1.75-6.36-2.97-9.82-3.55
		c-16.38-2.74-25.95,4.89-29.44,22.06C601.23,62.83,601.06,64.77,601.07,66.71z"/>
	<path class="st26" d="M763.05,203.88l0.38,74.82c-0.58,7.83,3.11,13.46,10.36,17.27l62.54,35.68c5.96,3.62,9.6,1.66,10.36-7.29
		v-73.28c0.31-7.32-2.96-12.85-10.74-16.11l-63.69-36.83C766.56,194.78,763.41,196.55,763.05,203.88z"/>
	<path class="st26" d="M637.04,132.16l0.38,74.82c-0.58,7.83,3.11,13.46,10.36,17.27l62.54,35.68c5.96,3.62,9.6,1.66,10.36-7.29
		v-73.28c0.31-7.32-2.96-12.85-10.74-16.11l-63.69-36.83C640.55,123.06,637.41,124.83,637.04,132.16z"/>
	<path class="st26" d="M643.53,104.59l208.15,119.96c5.59,3.06,8.96,1.28,9.96-5.69c0.77-5.5-1.57-10.3-5.69-14.7L646.37,83.26
		c-4.77-3.65-8.74-3.45-11.85,0.95C632.31,91.65,636.17,98.34,643.53,104.59z"/>
	<path class="st26" d="M634.31,276.11l206.55,114.84c5.56,3.06,9.16,4.34,10.67,3.72c1.18-0.5-0.9-2.32-4.85-4.91L638.72,274.12
		c-4.67-2.77-8.79-4.58-12.3-5.33C623.62,268.91,627.14,271.74,634.31,276.11z"/>
	<path class="st26" d="M635.17,263.54l206.55,114.84c5.56,3.06,9.16,4.34,10.67,3.72c1.18-0.5-0.9-2.32-4.85-4.91L639.59,261.55
		c-4.67-2.77-8.79-4.58-12.3-5.33C624.49,256.35,628.01,259.17,635.17,263.54z"/>
	<path class="st26" d="M634.86,251.06l206.55,114.84c5.56,3.06,9.16,4.34,10.67,3.72c1.18-0.5-0.9-2.32-4.85-4.91L639.28,249.07
		c-4.67-2.77-8.79-4.58-12.3-5.33C624.18,243.86,627.7,246.68,634.86,251.06z"/>
	<ellipse class="st27" cx="524.19" cy="738.7" rx="36.12" ry="21.93"/>
	<path class="st0" d="M562.12,733.7c-0.34,1.85-1.11,3.64-2.26,5.32c-5.45,7.97-19.36,13.63-35.69,13.63
		c-16.97,0-31.35-6.13-36.3-14.6c-1.19-2.04-1.84-4.22-1.84-6.48c0-11.65,17.08-21.08,38.15-21.08c21.07,0,38.15,9.44,38.15,21.08
		C562.32,732.29,562.24,733,562.12,733.7z M557.86,736.27c0.8-1.62,1.24-3.32,1.24-5.08c0-10.61-15.57-19.21-34.78-19.21
		c-19.21,0-34.78,8.6-34.78,19.21c0,1.37,0.26,2.69,0.76,3.98c3.32,8.7,17.28,15.24,34.02,15.24
		C540.35,750.41,553.83,744.42,557.86,736.27z"/>
	<linearGradient id="SVGID_14_" gradientUnits="userSpaceOnUse" x1="485.4096" y1="749.0657" x2="562.1198" y2="749.0657">
		<stop  offset="0.0857" style="stop-color:#DCC9F2"/>
		<stop  offset="0.472" style="stop-color:#DECBF2"/>
		<stop  offset="0.6552" style="stop-color:#E4D3F3"/>
		<stop  offset="0.7951" style="stop-color:#EEE0F4"/>
		<stop  offset="0.9131" style="stop-color:#FCF2F6"/>
		<stop  offset="0.9345" style="stop-color:#FFF6F6"/>
	</linearGradient>
	<path class="st28" d="M562.12,733.7l-0.44,11.24l-0.07,1.96c-1.33,10.98-17.85,19.66-38.05,19.66c-21.06,0-38.15-9.44-38.15-21.07
		c0-0.34,0.02-0.67,0.04-1.01l0.57-12.91c0,2.26,0.65,4.43,1.84,6.48c4.95,8.46,19.33,14.6,36.3,14.6
		c16.33,0,30.24-5.67,35.69-13.63C561.01,737.33,561.78,735.55,562.12,733.7z"/>
	<linearGradient id="SVGID_15_" gradientUnits="userSpaceOnUse" x1="489.4673" y1="724.0089" x2="559.7961" y2="724.0089">
		<stop  offset="0.0857" style="stop-color:#DCC9F2"/>
		<stop  offset="0.472" style="stop-color:#DECBF2"/>
		<stop  offset="0.6552" style="stop-color:#E4D3F3"/>
		<stop  offset="0.7951" style="stop-color:#EEE0F4"/>
		<stop  offset="0.9131" style="stop-color:#FCF2F6"/>
		<stop  offset="0.9345" style="stop-color:#FFF6F6"/>
	</linearGradient>
	<path class="st29" d="M490.3,735.17c18.06-22.31,54.64-19.93,67.56,1.1C574.35,705.9,479.69,701.74,490.3,735.17z"/>
	<linearGradient id="SVGID_16_" gradientUnits="userSpaceOnUse" x1="523.6378" y1="750.1409" x2="523.6378" y2="549.5644">
		<stop  offset="0" style="stop-color:#EF9A4D"/>
		<stop  offset="0.2065" style="stop-color:#F0A25B"/>
		<stop  offset="0.2679" style="stop-color:#F1A763"/>
		<stop  offset="0.3635" style="stop-color:#F3B379"/>
		<stop  offset="0.4813" style="stop-color:#F6C89D"/>
		<stop  offset="0.6154" style="stop-color:#FBE4CF"/>
		<stop  offset="0.701" style="stop-color:#FEF8F2"/>
		<stop  offset="0.7941" style="stop-color:#FFFFFF"/>
		<stop  offset="1" style="stop-color:#F6F6F6;stop-opacity:0"/>
	</linearGradient>
	<path class="st30" d="M490.3,735.17c11.94,21.94,58.1,17.55,67.56,1.1l-1.01-186.7l-67.44,1.19L490.3,735.17z"/>
	<circle class="st7" cx="505.77" cy="652.44" r="3.22"/>
	<circle class="st7" cx="517.74" cy="624.25" r="3.22"/>
	<circle class="st7" cx="542.48" cy="652.4" r="3.22"/>
	<circle class="st31" cx="529.72" cy="662.82" r="3.22"/>
	<circle class="st32" cx="518.61" cy="687.34" r="3.22"/>
	<circle class="st33" cx="530.96" cy="601.75" r="3.22"/>
	<circle class="st7" cx="539.34" cy="579.01" r="3.22"/>
	<circle class="st34" cx="507.97" cy="569.4" r="3.22"/>
	
		<rect x="536.86" y="671.34" transform="matrix(0.7338 -0.6794 0.6794 0.7338 -315.3793 548.655)" class="st35" width="11.13" height="10.86"/>
	
		<rect x="515.26" y="637.19" transform="matrix(0.7338 -0.6794 0.6794 0.7338 -297.9348 524.8924)" class="st35" width="11.13" height="10.86"/>
	
		<rect x="500.29" y="606.92" transform="matrix(0.7338 -0.6794 0.6794 0.7338 -281.3497 506.6631)" class="st36" width="11.13" height="10.86"/>
	
		<rect x="524.01" y="554.15" transform="matrix(0.7338 -0.6794 0.6794 0.7338 -239.1861 508.732)" class="st37" width="11.13" height="10.86"/>
	<g class="st38">
		<polyline class="st39" points="515.15,580.54 515.23,587.35 515.31,593.84 		"/>
		<line class="st39" x1="508.7" y1="586.94" x2="521.69" y2="587.43"/>
	</g>
	<g class="st38">
		<polyline class="st39" points="539.65,617.12 539.74,623.93 539.82,630.43 		"/>
		<line class="st39" x1="533.2" y1="623.52" x2="546.2" y2="624.01"/>
	</g>
	<g class="st38">
		<polyline class="st39" points="511.2,663.81 511.28,670.63 511.36,677.12 		"/>
		<line class="st39" x1="504.75" y1="670.21" x2="517.74" y2="670.71"/>
	</g>
	<g class="st38">
		<polyline class="st39" points="530.73,697.56 530.81,704.38 530.89,710.87 		"/>
		<line class="st39" x1="524.28" y1="703.96" x2="537.28" y2="704.46"/>
	</g>
	<g>
		<path class="st7" d="M105.64,649.82l11.66-6.31c0.51-0.27,1.08-0.42,1.65-0.42h5c0.63,0,1.26,0.17,1.8,0.5l5.02,3.04
			c0.52,0.32,1.12,0.49,1.73,0.5l8.17,0.16c0.63,0.01,1.26-0.15,1.8-0.46l29.31-16.91c0.82-0.47,1.4-1.25,1.63-2.16l0.12-0.49
			c0.32-1.29-0.12-2.65-1.15-3.51l-7.95-6.63c-0.79-0.66-1.25-1.64-1.25-2.67v-0.61c0-1.24,0.66-2.38,1.72-3l10.92-6.36
			c0.56-0.32,1.19-0.49,1.84-0.47l5.57,0.15c0.59,0.02,1.16,0.18,1.67,0.48l10.4,6.14c0.72,0.43,1.26,1.1,1.53,1.89l0.14,0.43
			c0.4,1.21,0.11,2.55-0.77,3.48l-1.44,1.52c-0.24,0.26-0.52,0.48-0.83,0.65l-5.01,2.8c-0.87,0.49-1.49,1.33-1.7,2.3l0,0
			c-0.18,0.83-0.05,1.69,0.37,2.43l0.65,1.15c0.34,0.6,0.85,1.09,1.47,1.4l2.94,1.47c0.36,0.18,0.74,0.29,1.13,0.34l5.25,0.64
			c0.53,0.06,1.06,0.01,1.56-0.17l3.46-1.2c0.28-0.1,0.54-0.23,0.78-0.39l4.95-3.3c0.08-0.05,0.16-0.1,0.24-0.15l4.87-2.7
			c0.3-0.16,0.62-0.29,0.95-0.36l3.77-0.82c0.24-0.05,0.49-0.08,0.74-0.08h4.95c0.48,0,0.95,0.1,1.38,0.29l3.84,1.67
			c0.08,0.04,0.17,0.08,0.25,0.12l5.92,3.16l4.99,2.49c0.17,0.08,0.33,0.18,0.48,0.29l3.1,2.24c0.2,0.14,0.38,0.31,0.55,0.49
			l0.76,0.85c0.52,0.58,0.83,1.31,0.88,2.09l0.04,0.67c0.05,0.75-0.14,1.49-0.55,2.12l-1.11,1.71c-0.32,0.49-0.75,0.89-1.27,1.17
			l-4.45,2.4l-5.34,3.24c-0.2,0.12-0.38,0.26-0.55,0.42l-1.25,1.15c-0.71,0.66-1.12,1.58-1.12,2.55v0.27c0,0.92,0.37,1.8,1.02,2.45
			l1.98,1.98c0.28,0.28,0.61,0.51,0.97,0.68l3.08,1.46c0.14,0.07,0.27,0.14,0.4,0.22l2.56,1.65c0.44,0.29,0.82,0.67,1.09,1.13
			l0.17,0.28c0.4,0.67,0.57,1.47,0.46,2.24l-0.06,0.45c-0.12,0.88-0.56,1.68-1.25,2.23l-1.92,1.56c-0.16,0.13-0.33,0.24-0.5,0.34
			l-5.17,2.87l-3.83,2.09c-0.4,0.22-0.83,0.35-1.28,0.4l-4.12,0.46c-0.42,0.05-0.85,0.02-1.26-0.09l-3.34-0.87
			c-0.44-0.12-0.86-0.32-1.22-0.59l-5.62-4.26c-0.31-0.24-0.67-0.42-1.04-0.54l-3.29-1.05c-0.38-0.12-0.78-0.18-1.18-0.16
			l-4.77,0.17c-0.18,0.01-0.35,0.03-0.53,0.06l-3.61,0.69c-0.24,0.05-0.47,0.12-0.7,0.21l-3.49,1.47l-2.8,1.23
			c-0.28,0.12-0.54,0.28-0.78,0.47l-2.27,1.82c-0.26,0.21-0.55,0.38-0.85,0.5l-3.54,1.45c-0.28,0.12-0.58,0.19-0.88,0.23l-4.08,0.51
			c-0.2,0.03-0.4,0.03-0.6,0.02l-3.03-0.15c-0.46-0.02-0.91-0.14-1.32-0.33l-3.42-1.63c-0.12-0.06-0.24-0.12-0.36-0.2l-5.17-3.25
			c-0.07-0.04-0.13-0.08-0.2-0.12l-4.98-2.68c-0.11-0.06-0.21-0.12-0.31-0.19l-4.78-3.25c-0.07-0.05-0.14-0.09-0.22-0.14l-5.13-2.96
			l-4.4-2.71c-0.55-0.34-1.18-0.51-1.82-0.51h-4.05l-4.71,0.17c-0.48,0.02-0.95,0.13-1.38,0.34l-4.79,2.3l-3.47,1.74
			c-0.1,0.05-0.21,0.1-0.32,0.14l-3.47,1.32c-0.39,0.15-0.81,0.23-1.24,0.23h-3.1c-0.58,0-1.16-0.15-1.67-0.43l-3.25-1.79
			l-4.08-2.14c-0.1-0.05-0.19-0.11-0.29-0.17l-3.14-2.05c-0.86-0.56-1.43-1.47-1.55-2.49l-0.13-1.09
			C103.68,651.87,104.39,650.5,105.64,649.82z"/>
		<path class="st7" d="M164.06,694.65l10.46-5.67c0.48-0.26,1.01-0.41,1.55-0.45l3.41-0.24c0.29-0.02,0.58-0.01,0.87,0.04l3.84,0.62
			c0.48,0.08,0.94,0.24,1.35,0.49l7.87,4.72c0.75,0.45,1.33,1.15,1.62,1.98l0,0c0.23,0.64,0.28,1.33,0.15,1.99l-0.16,0.86
			c-0.18,0.97-0.74,1.82-1.54,2.39l-5.05,3.57c-0.2,0.14-0.41,0.26-0.64,0.36l-5.37,2.41c-0.49,0.22-1.02,0.33-1.56,0.33h-3.17
			c-0.24,0-0.48-0.02-0.72-0.07l-4.17-0.81c-0.31-0.06-0.61-0.16-0.9-0.29l-5.13-2.42c-0.16-0.07-0.31-0.16-0.46-0.26l-2.42-1.58
			c-0.98-0.64-1.61-1.7-1.71-2.87l-0.12-1.48C161.96,696.81,162.73,695.37,164.06,694.65z"/>
	</g>
	<path class="st7" d="M273.1,227.92L455.63,123.3l-0.64-10.62c-1.4-3.87-4.09-5.64-8.69-4.35l-162.25,93.36
		c-4.69,3.15-7.97,7.7-10.3,13.2L273.1,227.92z"/>
	
		<ellipse transform="matrix(0.3168 -0.9485 0.9485 0.3168 -1.5803 417.0487)" class="st40" cx="288.7" cy="209.62" rx="4.81" ry="4.19"/>
	
		<ellipse transform="matrix(0.3168 -0.9485 0.9485 0.3168 16.9206 425.7632)" class="st40" cx="304" cy="201.14" rx="4.81" ry="4.19"/>
	
		<ellipse transform="matrix(0.3168 -0.9485 0.9485 0.3168 34.2573 433.414)" class="st40" cx="317.98" cy="192.93" rx="4.81" ry="4.19"/>
	<path class="st41" d="M356.48,207.93l92.18-52.54c2.85-1.66,4.92-0.63,6.45,2.3l0,27.19l-3.23,6.45c-0.29,1.71-1.92,3.58-4.15,5.53
		l-89.18,50.01c-4.66,3.21-7.34,2.59-7.83-2.3v-27.19C351.12,212.89,352.7,209.44,356.48,207.93z"/>
	<linearGradient id="SVGID_17_" gradientUnits="userSpaceOnUse" x1="356.3329" y1="206.8502" x2="403.4475" y2="206.8502">
		<stop  offset="0" style="stop-color:#EF9A4D"/>
		<stop  offset="0.1792" style="stop-color:#F0A35D"/>
		<stop  offset="0.2065" style="stop-color:#F0A25B"/>
		<stop  offset="0.419" style="stop-color:#F6C79C"/>
		<stop  offset="0.5975" style="stop-color:#FAE1CA"/>
		<stop  offset="0.7338" style="stop-color:#FDF2E7"/>
		<stop  offset="0.8118" style="stop-color:#FEF8F2"/>
		<stop  offset="1" style="stop-color:#FFFFFF"/>
		<stop  offset="1" style="stop-color:#F6F6F6;stop-opacity:0"/>
	</linearGradient>
	<line class="st42" x1="357.83" y1="219.54" x2="401.95" y2="194.16"/>
	<linearGradient id="SVGID_18_" gradientUnits="userSpaceOnUse" x1="356.2124" y1="215.0504" x2="403.327" y2="215.0504">
		<stop  offset="0" style="stop-color:#EF9A4D"/>
		<stop  offset="0.1792" style="stop-color:#F0A35D"/>
		<stop  offset="0.2065" style="stop-color:#F0A25B"/>
		<stop  offset="0.419" style="stop-color:#F6C79C"/>
		<stop  offset="0.5975" style="stop-color:#FAE1CA"/>
		<stop  offset="0.7338" style="stop-color:#FDF2E7"/>
		<stop  offset="0.8118" style="stop-color:#FEF8F2"/>
		<stop  offset="1" style="stop-color:#FFFFFF"/>
		<stop  offset="1" style="stop-color:#F6F6F6;stop-opacity:0"/>
	</linearGradient>
	<line class="st43" x1="357.71" y1="227.74" x2="401.83" y2="202.36"/>
	<linearGradient id="SVGID_19_" gradientUnits="userSpaceOnUse" x1="356.0962" y1="226.8852" x2="392.1362" y2="226.8852">
		<stop  offset="0" style="stop-color:#EF9A4D"/>
		<stop  offset="0.1792" style="stop-color:#F0A35D"/>
		<stop  offset="0.2065" style="stop-color:#F0A25B"/>
		<stop  offset="0.419" style="stop-color:#F6C79C"/>
		<stop  offset="0.5975" style="stop-color:#FAE1CA"/>
		<stop  offset="0.7338" style="stop-color:#FDF2E7"/>
		<stop  offset="0.8118" style="stop-color:#FEF8F2"/>
		<stop  offset="1" style="stop-color:#FFFFFF"/>
		<stop  offset="1" style="stop-color:#F6F6F6;stop-opacity:0"/>
	</linearGradient>
	<line class="st44" x1="357.6" y1="236.34" x2="390.64" y2="217.43"/>
	<line class="st45" x1="278.24" y1="326.04" x2="338.41" y2="291.26"/>
	<line class="st45" x1="276.31" y1="352.59" x2="357.93" y2="305"/>
	<line class="st45" x1="276.43" y1="379.61" x2="325.74" y2="348.4"/>
	<line class="st46" x1="275.1" y1="405.33" x2="411.23" y2="325.71"/>
	<path class="st47" d="M338.44,406.48l-19.25-9.71c-0.98-0.46-2.07-0.32-3.22,0.2l-30.36,15.83c-1.44,0.83-2.62,2.19-2.94,5.22
		l-0.16,14.69c0.01,1.71,0.35,3.21,1.14,4.41l16.94,11.77L338.44,406.48z"/>
	<path class="st7" d="M301.67,424.36l33.2-17.82c2.08-0.96,3.72-0.67,4.88,0.98l0.73,15.87c0.24,2.25-0.56,3.75-2.2,4.64
		l-33.2,20.26c-2.94,1.54-4.98,1.3-5.86-1.22l-0.24-18.31C299.36,426.8,300.02,425.12,301.67,424.36z"/>
	<path class="st47" d="M473.48,178.79l-15.82-7.81c-0.8-0.37-1.7-0.25-2.65,0.16l-24.95,12.73c-1.19,0.66-2.15,1.76-2.41,4.2
		l-0.13,11.81c0.01,1.38,0.29,2.58,0.94,3.54l13.92,9.47L473.48,178.79z"/>
	<path class="st7" d="M443.26,193.16l27.28-14.33c1.71-0.77,3.05-0.54,4.01,0.79l0.6,12.76c0.2,1.81-0.46,3.01-1.81,3.73
		l-27.28,16.29c-2.42,1.24-4.09,1.04-4.81-0.98l-0.2-14.72C441.36,195.12,441.9,193.77,443.26,193.16z"/>
	<path class="st7" d="M348.25,378.5l32.18-18.22c2.08-0.96,3.72-0.67,4.88,0.98l0.73,15.87c0.24,2.25-0.56,3.75-2.2,4.64
		l-33.2,20.26c-2.94,1.54-4.98,1.3-5.86-1.22l-0.24-18.31C344.92,380.54,346.6,379.26,348.25,378.5z"/>
	<path class="st48" d="M273.47,277.85c3.26,32.03,50.27,19.4,55.36-34.1C321.61,204.43,274.71,232.04,273.47,277.85z"/>
	<polygon class="st10" points="302.09,260.33 316.09,268.11 322.5,232.92 307.53,224.56 	"/>
	<polygon class="st6" points="330.67,286.57 316.87,278.8 302.09,260.33 316.09,268.11 	"/>
	<path class="st49" d="M307.53,224.56l14.97,8.36c3.99-0.9,8.06-0.98,12.22-0.35l-15.27-8.42
		C315.42,223.07,311.45,223.18,307.53,224.56z"/>
	<path class="st9" d="M316.09,268.11l6.42-35.19c4.32-1.35,8.41-1.5,12.22-0.35c12.46,13.62,10.01,32.03-4.06,54.01L316.09,268.11z"
		/>
	<ellipse transform="matrix(0.5 -0.866 0.866 0.5 -108.468 296.7267)" class="st50" cx="202.74" cy="242.3" rx="9.79" ry="6.75"/>
	<ellipse transform="matrix(0.5 -0.866 0.866 0.5 -191.1878 335.0916)" class="st50" cx="194.6" cy="333.12" rx="9.79" ry="6.75"/>
	<path class="st10" d="M217.16,268.17c-6.02-3.47-15,0.82-20.06,9.59c-5.06,8.77-4.29,18.69,1.73,22.17
		c6.02,3.47,15-0.82,20.06-9.59C223.95,281.56,223.18,271.64,217.16,268.17z M213.57,287.15c-2.7,4.68-7.51,6.96-10.74,5.1
		c-3.23-1.86-3.65-7.17-0.95-11.85c2.7-4.68,7.51-6.96,10.74-5.1C215.84,277.16,216.27,282.47,213.57,287.15z"/>
	
		<rect x="165.12" y="300.86" transform="matrix(0.848 0.53 -0.53 0.848 190.9467 -44.1284)" class="st7" width="14.59" height="19.97"/>
	<g>
		<line class="st39" x1="168.84" y1="261.11" x2="169.06" y2="283.85"/>
		<line class="st39" x1="158.91" y1="278.11" x2="178.12" y2="266.85"/>
	</g>
	<path class="st10" d="M539.96,136.65c-6.02-3.47-15,0.82-20.06,9.59c-5.06,8.77-4.29,18.69,1.73,22.17
		c6.02,3.47,15-0.82,20.06-9.59C546.75,150.05,545.98,140.12,539.96,136.65z M536.37,155.63c-2.7,4.68-7.51,6.96-10.74,5.1
		c-3.23-1.86-3.65-7.17-0.95-11.85c2.7-4.68,7.51-6.96,10.74-5.1C538.64,145.64,539.07,150.95,536.37,155.63z"/>
	
		<ellipse transform="matrix(0.5998 -0.8002 0.8002 0.5998 123.6095 462.4545)" class="st50" cx="524.11" cy="107.66" rx="9.13" ry="6.75"/>
	
		<ellipse transform="matrix(0.5998 -0.8002 0.8002 0.5998 49.5049 483.8948)" class="st6" cx="508.49" cy="192.46" rx="9.13" ry="6.75"/>
	<g>
		<line class="st39" x1="497.22" y1="120.4" x2="497.45" y2="143.14"/>
		<line class="st39" x1="487.29" y1="137.4" x2="506.5" y2="126.14"/>
	</g>
	
		<rect x="484.44" y="160.67" transform="matrix(0.848 0.53 -0.53 0.848 165.1828 -234.6702)" class="st7" width="14.59" height="19.97"/>
	<path class="st51" d="M620.9,624.14l-0.16,15.08c-0.07,2.25,0.57,4.09,2.33,5.29l23.02,12.29l8.55-6.69l-24.1-13.37
		c1.85-3.08,1.3-5.27,0.31-7.31L620.9,624.14z"/>
	<path class="st52" d="M631.91,628.63l-0.19,44.8c3.72,1.62,7.33,0.75,10.77-3.69l0.37-45.03L631.91,628.63z"/>
	<path class="st53" d="M554.89,404.16l-11.33,6.79c-5.38,2.82-10.09,6.51-14.08,11.13c-2.99,3.02-6.48,5.48-10.4,7.46
		c0.17,2.78,1.56,4.74,4.25,5.83l30.75-20.5c0.54-0.75,0.87-1.51,0.9-2.29L554.89,404.16z"/>
	<path class="st54" d="M533.35,417.33l9.08-6.61l0.09,36.96c-2.39,1.64-4.79,1.72-7.21,0.33c0.52-4.36,0.4-8.63-0.47-12.79
		C533.2,429.34,532.73,423.37,533.35,417.33z"/>
	<path class="st55" d="M527.8,404.63v14.23c3.1,0.74,6.09,0.93,8.92,0.42c3.05-0.23,5.75-1.29,8.18-2.97
		c4.08-3.38,7.54-6.85,10.41-10.41l-0.64-10.83l-18.48,10.62L527.8,404.63z"/>
	<path class="st55" d="M540.77,363.13l10.87-9.17c2.62,4.46,2.76,10.1,1.21,16.54c-0.65,0.85-1.56,1.21-2.72,1.11
		C546.83,370,543.78,366.69,540.77,363.13z"/>
	<line class="st56" x1="428.91" y1="270.06" x2="448.54" y2="287.61"/>
	<line class="st56" x1="457.31" y1="251.53" x2="476.94" y2="269.07"/>
	<polygon class="st53" points="462.77,282.74 473.29,282.67 473.16,290.38 470.08,292.32 463.91,292.12 462.04,289.24 	"/>
	<polygon class="st52" points="470.88,328.97 481.91,319.56 482.28,359.2 471.01,362.17 	"/>
	<path class="st57" d="M469.89,353.74c-8.74-3.41-10.05-0.26-6.83,6.91l10.07,6.83c2.48,1.04,4.62,1.02,6.33-0.36l3.45-2.88
		c0.54-2.11,0.31-4.08-0.36-5.97c-4.23,2.32-8.31,0.89-11.87-4.32L469.89,353.74z"/>
	<path class="st52" d="M292.81,407.55l21.68,12.81l24.25-15.11l-15.71-8.71l-0.54-28.67c-0.9-3.62-3.41-5.6-7.26-6.25l-4.27,2.03
		l-0.11,4.5l-3.63,0.95l-8.76-1.82l-4.16,2.35l-1.71,3.52L292.81,407.55z"/>
	<path class="st53" d="M306.29,369.2c1.55,0.52,3.08,0.34,4.57-1.03l0.29-6.11l-7-0.59L306.29,369.2z"/>
	<polygon class="st54" points="322.49,367.89 328.95,388.44 323.02,391.62 	"/>
	<path class="st54" d="M315.54,419.39l9.08-5.71l0.09,31.92c-2.39,1.42-4.79,1.49-7.21,0.28c0.52-3.77,0.4-7.45-0.47-11.05
		C315.39,429.76,314.91,424.61,315.54,419.39z"/>
	<path class="st54" d="M329.65,411.18l9.08-5.92l0.09,33.11c-2.39,1.47-4.79,1.54-7.21,0.29c0.52-3.91,0.4-7.73-0.47-11.46
		C329.51,421.94,329.03,416.6,329.65,411.18z"/>
	<ellipse class="st54" cx="309.14" cy="353.12" rx="10.57" ry="10.65"/>
	<polyline class="st58" points="302.22,406.81 320.17,417.43 343.11,403.87 323.59,393.46 302.22,406.81 	"/>
	<line class="st56" x1="295.72" y1="373.7" x2="319.78" y2="401.95"/>
	<polygon class="st59" points="320.17,417.43 319.81,394.3 343.75,380.18 343.11,403.87 	"/>
	<path class="st55" d="M316.82,451.38l1.14,0.44c0.23-0.68,0.24-1.52,0.19-2.4c3.81,2.43,7.49,4.54,10.81,5.82
		c4.41,0.94,5.5-0.53,4.3-3.67c-2.75-2.74-5.58-5.31-8.53-7.59c-2.28,1.7-4.74,1.72-7.33,0.63
		C316.43,446.66,316.33,448.94,316.82,451.38z"/>
	<path class="st55" d="M331.02,444.98l1.14,0.44c0.23-0.68,0.24-1.52,0.19-2.4c3.81,2.43,7.49,4.54,10.81,5.82
		c4.41,0.94,5.5-0.53,4.3-3.67c-2.75-2.74-5.58-5.31-8.53-7.59c-2.28,1.7-4.74,1.72-7.33,0.63
		C330.63,440.26,330.52,442.54,331.02,444.98z"/>
	<polygon class="st52" points="457.94,333.1 457.74,371.97 469.36,368.76 469.76,329.7 	"/>
	<path class="st57" d="M456.78,363.08c-8.74-3.41-10.05-0.26-6.83,6.91l10.07,6.83c2.48,1.04,4.62,1.02,6.33-0.36l3.45-2.88
		c0.54-2.11,0.31-4.08-0.36-5.97c-3.87,0.76-7.85-1.15-11.87-4.32L456.78,363.08z"/>
	<path class="st9" d="M483.3,278.89l-4.89-5.39l-5.99,5.39l4.1,2.96l-4.25,1.88c-0.44,1.71-0.46,3.5,0,5.36
		c-3.47,2.81-6.81,1.68-10.11-0.58c-0.69-0.02-1.36,0.07-2,0.24l-8.36-6.4c-4.36,1.1-6.75,4.43-7.74,9.36l7.77,6.56l0.11,31.64
		c12.69,9.49,22.85,4.63,31.24-10.26l-0.34-33.23C483.88,283.56,484.6,280.83,483.3,278.89z"/>
	<path class="st54" d="M454.39,264.1c-0.46,3.42-0.51,7.02,0,10.86c1.55,4.04,3.74,7.12,7.33,8.11c1.25,0.59,2.55,0.68,3.88,0.49
		c1.61-0.18,3.2-1.42,4.79-2.68l-1.76-12.06L454.39,264.1z"/>
	<path class="st55" d="M453.83,264.34c1.39,3.77,3.32,7.17,5.82,10.18c1.21-1.79,2.66-2.47,4.36-1.99c1.88,1.66,1.37,3.57-1,5.66
		c1.83,2.52,3.92,4.58,6.35,6.05c2.66-0.14,5.2-0.67,7.5-1.84c2.15-2.71,3.79-5.39,4.59-8.04c0.79-4.93,0.8-9.62-0.38-13.93
		c-1.9-3.37-4.2-6.21-7.58-7.58c-4.12-0.69-8.13-0.42-12.02,0.84c-2.6,1.32-4.95,2.78-6.51,4.67
		C453.79,259.94,453.63,262.05,453.83,264.34z"/>
	<line class="st60" x1="568.32" y1="397.94" x2="545.7" y2="368.52"/>
	<path class="st55" d="M534.66,453.67l1.14,0.44c0.23-0.68,0.24-1.52,0.19-2.4c3.81,2.43,7.49,4.54,10.81,5.82
		c4.41,0.94,5.5-0.53,4.3-3.67c-2.75-2.74-5.58-5.31-8.53-7.59c-2.28,1.7-4.74,1.72-7.33,0.63
		C534.27,448.95,534.16,451.23,534.66,453.67z"/>
	<path class="st55" d="M515.36,430.99l0.2,1.2c0.7-0.15,1.43-0.57,2.16-1.07c-0.14,4.52-0.07,8.76,0.54,12.26
		c1.45,4.27,3.27,4.45,5.35,1.81c0.94-3.77,1.7-7.51,2.14-11.21c-2.63-1.09-3.9-3.19-4.3-5.97
		C519.21,428.24,517.2,429.32,515.36,430.99z"/>
	<path class="st61" d="M526.57,405.65l7.02,4.23l5.88-0.62l15.58-11.56c0.63-10.04,1.11-19.67,0.62-26.83
		c-3.25-3.49-6.76-5.29-10.53-5.37l-1.65,0.21l-5.78,3.51l-7.74-0.41l-3.82,9.7L526.57,405.65z"/>
	<path class="st53" d="M539.2,370.22c1.55,0.52,3.08,0.34,4.57-1.03l0.29-6.11l-7-0.59L539.2,370.22z"/>
	<ellipse class="st54" cx="542.52" cy="354.14" rx="10.57" ry="10.65"/>
	<line class="st60" x1="529.46" y1="371.21" x2="512.57" y2="404.25"/>
	<path class="st55" d="M524.86,368.87c3.08,3.91,7.38,5.83,12.59,6.3c1.56-0.65,2.42-1.63,2.52-2.98l-2.45-9.25l-2.93-9.42
		c4.17-2.61,7.59-5.77,10.08-9.62c1.76,2.26,3.84,4,6.3,5.15c1.13,0.24,2.32,0.1,3.55-0.34c0.03-3.46-1.52-6.5-4.01-9.27
		c-3.32-2.14-7.04-3.06-11.22-2.63c-4.61,0.26-8.06,2.23-10.3,6.01c-1.6,5.89-2.68,11.53-2.86,16.72L524.86,368.87z"/>
	<line class="st60" x1="608.26" y1="623.83" x2="625.45" y2="597.62"/>
	<path class="st61" d="M647.84,632.33l-7.02,4.23l-5.88-0.62l-15.58-11.56c-0.63-10.04,0.62-19.56,0.7-22.5
		c0.2-7.59,9.72-12.54,14.27-7.87l-3.4-1.62l5.78,3.51c-3.05-3.04,4.1-2.74,7.74-0.41l3.82,9.7L647.84,632.33z"/>
	<path class="st53" d="M638.57,593.73c-0.59,3.42-7.05,4.92-9.34,1.35l0.06-5.43l9.07-1.81L638.57,593.73z"/>
	<path class="st54" d="M621.33,580.82c0,5.88,4.73,10.65,10.57,10.65s10.57-4.77,10.57-10.65s-4.73-10.65-10.57-10.65
		c-3.81,0-7.86-0.75-9.72,2.3C621.18,574.09,621.33,578.78,621.33,580.82z"/>
	<line class="st60" x1="644.95" y1="597.89" x2="661.84" y2="630.93"/>
	<path class="st57" d="M623.98,676.13c-2.55,4.62-0.23,6.07,5.54,5.28l12.18-6.22c1.51-2.09,1.81-4.57,0.94-7.41
		c-3.35,2.41-6.92,2.98-10.99-0.34L623.98,676.13z"/>
	<path class="st57" d="M649.47,666.39c2.86,4.17,5.1,3,6.9-1.92l-0.09-12.53c-1.14-2.17-3.13-3.56-5.94-4.19
		c0.63,3.77-0.42,6.86-5.01,8.53L649.47,666.39z"/>
	<path class="st55" d="M320.29,344.56c-1.88-9.35-18.7-13.66-22.94-3.04c-13.26,4.6-2.63,34.18,12.05,33.41
		c-3.98-9.44-5-18.92-2.9-28.43c5.17-0.66,9.37,1.37,12.32,6.84c-0.24,3.14-1.03,5.42-3.39,8.34c1.9,0.61,3.72,1.49,5.28,2.67
		C322.42,358.75,322.46,351.28,320.29,344.56z"/>
	<path class="st62" d="M621.7,573.57c4.9,3.56,10.13,4.54,15.66,3.24c1.13,2.08,0.54,5.15-0.52,8.49c1.85-3.09,2.61-3.5,4.49-2.21
		c0.61,1.89,0.08,2.24-1.53,4.19c0.13,1.06,1.2,1.47,2.64,1.61c3.54-2.89,6-6.32,7.35-10.32c0.91-4.55,0.59-8.62-2.19-11.72
		c-2.04-1.95-4.5-3.51-7.44-4.64c-3.52-1.53-7.17-1.59-10.94-0.17c-3.96,1.6-6.96,4.41-9.1,8.31
		C620.19,571.67,620.79,572.71,621.7,573.57z"/>
</g>
</svg>
