<svg id="Laag_1" data-name="Laag 1" xmlns="http://www.w3.org/2000/svg" viewBox="0 0 382.86 421.14"><defs><style>.cls-1{fill:#dd4382;}.cls-2{fill:#e9f0f8;}.cls-3{fill:#e56e9f;}.cls-4{fill:#dcc8e8;opacity:0.49;}.cls-4,.cls-7{isolation:isolate;}.cls-5{fill:none;stroke:#dd4382;stroke-linecap:round;stroke-miterlimit:10;stroke-width:2px;}.cls-6{fill:#ea4139;}.cls-7{fill:#f9b77a;opacity:0.45;}.cls-8{fill:#000034;}.cls-9{fill:#db9a74;}.cls-10{fill:#f9eeea;}.cls-11{fill:#e29a72;}.cls-12{fill:#000035;}.cls-13{fill:#b32257;}.cls-14{fill:#fbc324;}.cls-15{fill:#442a17;}.cls-16{fill:#e8883f;}.cls-17{fill:#782110;}.cls-18{fill:#010334;}.cls-19{fill:#fbbea1;}.cls-20{fill:#eeb598;}.cls-21{fill:#d9296a;}.cls-22{fill:#c92769;}.cls-23{fill:#000332;}.cls-24{fill:#fdb698;}.cls-25{fill:#f8ad8e;}.cls-26{fill:#fcf1ed;}</style></defs><path class="cls-1" d="M228.86,52.29l-213,1.79V179.75l33.07-.35L74.4,204.54c2.32,1.79,3.48,1.83,2.62-1.23l-5.19-24.15,157-1.64Z" transform="translate(0)"/><rect class="cls-2" x="49.39" y="97.44" width="144.89" height="9.04"/><rect class="cls-2" x="50.9" y="128.41" width="144.89" height="9.04"/><path class="cls-3" d="M342,158H123.35V300.66l57.32-.41L155.74,342.8c-2.69,6.38.56,5.74,8.13,0l71.79-42.95L342,299.08Z" transform="translate(0)"/><rect class="cls-2" x="159.94" y="210.36" width="144.15" height="9.11"/><rect class="cls-2" x="161.94" y="239.62" width="144.15" height="9.11"/><path class="cls-4" d="M380.7,29.55H348.3a2.16,2.16,0,0,0-2.12,2.16V51.24a2.16,2.16,0,0,0,2.16,2.16h12.54L357,59.06l8.1-5.66H380.7a2.16,2.16,0,0,0,2.16-2.16V31.71a2.16,2.16,0,0,0-2.16-2.16Z" transform="translate(0)"/><line class="cls-5" x1="361.77" y1="35.98" x2="362.79" y2="47.41"/><line class="cls-5" x1="366.09" y1="35.98" x2="367.45" y2="47.29"/><line class="cls-5" x1="359.04" y1="38.94" x2="369.96" y2="38.94"/><line class="cls-5" x1="359.32" y1="44" x2="369.96" y2="44.05"/><path class="cls-4" d="M36.33,211H2.27A2.27,2.27,0,0,0,0,213.29H0v20.52a2.27,2.27,0,0,0,2.27,2.27h17l7.6,5.95-2.69-5.95H36.33a2.27,2.27,0,0,0,2.27-2.27h0V213.29A2.27,2.27,0,0,0,36.33,211Z" transform="translate(0)"/><line class="cls-5" x1="22.16" y1="217.78" x2="21.09" y2="229.8"/><line class="cls-5" x1="17.62" y1="217.78" x2="16.19" y2="229.68"/><line class="cls-5" x1="25.03" y1="220.89" x2="13.56" y2="220.89"/><line class="cls-5" x1="24.73" y1="226.21" x2="13.56" y2="226.27"/><path class="cls-4" d="M303.48,0H265.34a2.56,2.56,0,0,0-2.55,2.54v23a2.55,2.55,0,0,0,2.55,2.55h16.78l2.29,8.41,2.31-8.41h16.76A2.54,2.54,0,0,0,306,25.55h0v-23A2.54,2.54,0,0,0,303.48,0Z" transform="translate(0)"/><path class="cls-6" d="M284.41,9.78C280-.87,264.52,11.22,284.3,22.83v.11l.08-.05.08.05v-.11C304.3,11.24,288.78-.87,284.41,9.78Z" transform="translate(0)"/><path class="cls-7" d="M242.38,398.05c155,6.7,165.3-31.72,2.24-29.94-70.58-7.3-130.69-8.87-151.44,11.13-67.27-6.5-96.89,28.3-52.73,38.46,23.33,2.59,45,4.13,62.55,3.13,26.42-2.36,51.59-5.5,61.2-18.32C171.43,395.3,201.25,395,242.38,398.05Z" transform="translate(0)"/><path class="cls-8" d="M95.9,388.17a11.44,11.44,0,0,1-3.53,4.93l-7.74,5.46c-2.48,2.78-1.31,3.66,1.4,3.73,5.1-.81,9.48-1.92,12.28-3.68a4.69,4.69,0,0,0,3.65-4.5l.65-6.13Z" transform="translate(0)"/><path class="cls-9" d="M93.45,392.12l2.82,1.76a12,12,0,0,0,6.16-4.23l.18-1.67-6.71.19A18.74,18.74,0,0,1,93.45,392.12Z" transform="translate(0)"/><path class="cls-8" d="M113.18,381.68a11.46,11.46,0,0,1-2.31,5.61l-6.29,7.09c-1.77,3.27-.44,3.86,2.22,3.31,4.78-2,8.78-4,11.11-6.4a4.7,4.7,0,0,0,2.52-5.22l-.77-6.11Z" transform="translate(0)"/><path class="cls-9" d="M111.7,386.08l3.15,1.08a12.05,12.05,0,0,0,5-5.54l-.21-1.66-6.46,1.72A19.48,19.48,0,0,1,111.7,386.08Z" transform="translate(0)"/><path class="cls-10" d="M89.4,327.84l22.16,55.65L121.85,379l-16.23-54.12,8.56-37.65L99,274.81l-9.62,47.51A8.76,8.76,0,0,0,89.4,327.84Z" transform="translate(0)"/><path class="cls-10" d="M99,274.79l39.91,2.65c-2.52,14.6-13.23,36.39-24.43,58.61L104,388.6H93l8.84-63.71Z" transform="translate(0)"/><path class="cls-11" d="M91.72,229.31,102.89,235l-9.44,9.91a4.3,4.3,0,0,1-5.58-.39c-7.27-6.44-7.85-16.78-7.32-27.77-.15-7.71,5.2-7.63,3.38.71,1.06,6.32,2.47,12.28,5.34,16.68Z" transform="translate(0)"/><path class="cls-11" d="M113.94,210.78c3.38-2,6.51-4.13,6.88-7.45l9.51-7.56c-.73,5.94.93,10.47,5.61,13.18C129.78,215.08,122.35,215.24,113.94,210.78Z" transform="translate(0)"/><path class="cls-11" d="M115.8,204.82c6.17-1.17,14.7-4.19,15.13-9.61l.21-1.72s-4.08,2.37-3.71,2.28c1.26-.31.25-4.54-.91-4.56,8.55-4.62,2.85-10.27-2-3.6l-.69-8.66-14.25,5.59C109.48,193.48,110.77,201,115.8,204.82Z" transform="translate(0)"/><path class="cls-12" d="M123.5,179.63a20.38,20.38,0,0,0,1.06,7.9c4.4-4.9,8.88-.1,2,3.51a8.35,8.35,0,0,0,2.57,7.14c9.52-10.64,12.67-26.61-4.91-30.14-13.55-1-23.08,1.88-21.36,12.88C105,186.78,112.78,186.78,123.5,179.63Z" transform="translate(0)"/><path class="cls-13" d="M91.09,228.85c3.35-9.86,11.83-16.07,25-19.44,4.92,5.61,12.48,4.8,19.87-.56,8.8,3.61,13.65,9.59,16.19,17a42.51,42.51,0,0,1-13.66,21.75c.9,9.24.77,20,.13,31.51a177,177,0,0,1-41.12-2.28c2-18.33,2.12-35.58,4.68-41.24C98.12,235,94.51,232.33,91.09,228.85Z" transform="translate(0)"/><path class="cls-14" d="M83.33,201.91l8.14-.23a1.26,1.26,0,0,1,1.29,1.23v17.45a1.25,1.25,0,0,1-1.19,1.25l-8.14.42a1.26,1.26,0,0,1-1.32-1.2V203.17A1.26,1.26,0,0,1,83.33,201.91Z" transform="translate(0)"/><polygon class="cls-15" points="83.68 203.94 85.89 203.82 85.89 205.18 83.68 205.29 83.68 203.94"/><path class="cls-11" d="M97.54,221.67l22.71,23.62,9.29-5.8,9,8.08-9.75,7.08c-4.17,2.37-8.07,2.36-11.58-1.13-8.28-7.83-16.08-17.7-23.62-28.65C81.72,216.36,89.26,212.81,97.54,221.67Z" transform="translate(0)"/><path class="cls-16" d="M358.48,79l10.26-1.42a.81.81,0,0,1,.92.68.76.76,0,0,1,0,.15l-.56,21.56a.82.82,0,0,1-.67.79l-10,1.81a.82.82,0,0,1-1-.62,1.23,1.23,0,0,1,0-.19l.27-22A.82.82,0,0,1,358.48,79Z" transform="translate(0)"/><path class="cls-17" d="M359.51,81h0l1.45-.2v2.53h0l-1.45.24Z" transform="translate(0)"/><path class="cls-18" d="M258.28,145.73c25.3,9,52.36,10.11,81,4L313.7,53.3C267.83,53.29,282.18,119.38,258.28,145.73Z" transform="translate(0)"/><path class="cls-19" d="M331.44,239.43v6.11c4.08,6.56,8.83,7.62,14.08,4.56l-4.34-7.17-.49-4.8Z" transform="translate(0)"/><polygon class="cls-20" points="336.53 238.72 337.05 243.67 342.87 251.29 345.52 250.09 341.2 242.93 340.71 238.13 336.53 238.72"/><path class="cls-21" d="M299.8,141.35l30.38-1.62c1.3,11.66,8.53,28.7,16.24,47.23,1.37,16.57-.62,35.13-4.24,54.66H329.25c-.36.13-5.5-38.21-5.2-39.84s-28.48-30-28.48-30c-6.05-6.66-5.31-14.05,0-21.94Z" transform="translate(0)"/><path class="cls-22" d="M337.77,241.62V198.78l-17.08-31.65c2.58-5.75,7.32-8.13,14.93-7L346.44,187c2,14.35-.59,33.91-4.23,54.66Z" transform="translate(0)"/><path class="cls-23" d="M331.09,244.71c-1.25,0-1.77.6-1.33,2a67.14,67.14,0,0,0,9.9,10.39c4.28,2.86,10,.54,8-4.43l-2.11-2.62C339.69,253,334.81,251.41,331.09,244.71Z" transform="translate(0)"/><path class="cls-24" d="M280.49,122.7a22.33,22.33,0,0,0,11.76,1.09c-2.22,17.16,13.58,26.14,38.56,31,10.22,3.93,4.84,7.53-3.39,3C290,153.13,280.43,146.51,280.49,122.7Z" transform="translate(0)"/><path class="cls-24" d="M334.94,115.92l9.94-8.43q3.63,7.82,7.18,16.45a88.71,88.71,0,0,0,13-19,39.44,39.44,0,0,0-.59-10,3,3,0,0,1,4-1.33l.15.08c2.14,3.43,2.55,7.35,1.92,11.56-6.95,15.49-12.5,27.4-20.12,30.9C343.4,133.53,338.36,126.53,334.94,115.92Z" transform="translate(0)"/><path class="cls-25" d="M301.18,79.48l12.61,5.17c.11,4.69,7.22,6,16.32,6.27-11,6.91-24.34,9.14-39.71,7.29C298.68,94.24,302.18,88.44,301.18,79.48Z" transform="translate(0)"/><path class="cls-24" d="M299.64,69.65c-3.9-3-5.68,1.78-2.26,6q7.5,10.78,19.87,9.46c5.31-3.92,5.78-10.32,4.38-17.68A29.12,29.12,0,0,0,309.51,56,16.28,16.28,0,0,0,299.64,69.65Z" transform="translate(0)"/><path class="cls-26" d="M299.82,141.44c9.59,1.38,19.77.51,30.32-1.71A23.56,23.56,0,0,1,332,128.16c2.38-2.84,2.76-7.58,3.13-12.34a23.63,23.63,0,0,0,10.39-8c-3.09-9.45-6.62-18-14.64-17.28-11.5,5.85-25.55,7.9-41.25,7.51-7.58,2.08-9.46,13.34-10.21,26.41a31.14,31.14,0,0,0,13.37.83Z" transform="translate(0)"/><path class="cls-18" d="M309,53.89c7.65-2.53,11.55,2.42,13.35,11.56-.19,1.25-.82,1.85-2.12,1.39C311.37,64.67,306.38,60.88,309,53.89Z" transform="translate(0)"/><path class="cls-13" d="M298.45,68.93l1.73,1.31c3.32-7.84,7.48-13.89,13.45-16.94a15.93,15.93,0,0,0-4.77.27C303.6,57,300.59,62.47,298.45,68.93Z" transform="translate(0)"/></svg>