<?xml version="1.0" encoding="utf-8"?>
<!-- Generator: Adobe Illustrator 24.3.0, SVG Export Plug-In . SVG Version: 6.00 Build 0)  -->
<svg version="1.1" id="Laag_1" xmlns="http://www.w3.org/2000/svg" xmlns:xlink="http://www.w3.org/1999/xlink" x="0px" y="0px"
	 viewBox="0 0 263 310" style="enable-background:new 0 0 263 310;" xml:space="preserve">
<style type="text/css">
	.st0{fill:#FFC950;}
	.st1{fill:#AF7E68;}
	.st2{fill:#FCEBFC;}
	.st3{fill:#C18C6F;}
	.st4{fill:#705C53;}
	.st5{fill:#FDFFFE;}
	.st6{fill:#281A13;}
</style>
<rect class="st0" width="263" height="310"/>
<path class="st1" d="M100.18,239.51h61.66c-0.65,16.69,1.7,32.44,9.08,46.6c-25.08,8.56-51.47,7.97-78.87,0.42
	C97.71,269.89,100.83,254.08,100.18,239.51z"/>
<path class="st2" d="M12.46,309.88l230.92,1.02c-18.76-17.74-41.94-29.1-72.46-29.86c-26.68,6.73-52.9,5.76-78.87,0.42
	C62.94,278.65,37.43,293.01,12.46,309.88z"/>
<path class="st3" d="M206.98,142.96h-12.05v-37.71c0.27-61.89-123.66-65.13-126.28,0v37.71H56.6c-5.11,9.62-5.11,19.24,0,28.87
	h12.05v46.53c6.68,45.06,109.04,58.67,126.28,0v-46.53h12.05C211.32,162.2,211.32,152.58,206.98,142.96z"/>
<path class="st4" d="M105.84,185.2c19.22-4.56,36.55-4.28,52.65,0c14.73,1.87,27.12-1.69,36.44-12.38v46.53
	c-13.81,56.65-119.03,47.43-126.28,0v-46.53C81.64,182.6,94.29,189.1,105.84,185.2z"/>
<path class="st5" d="M103.42,203.24l56.74,1.61v5.3c-3.64,25.63-54.32,24.33-56.74-1.5V203.24z"/>
<g id="Hq3C1t_1_">
	<g>
		<path class="st6" d="M102.87,128.09c5.25,0.17,12.72,0.71,19.1,5.5c0.54,0.41,1.14,0.73,1.87,0.47c4.77-1.68,9.88-1.58,14.49-0.58
			c3.68,0.81,5.86-0.56,8.64-1.9c8-3.85,16.58-3.87,25.18-3.26c5.63,0.4,10.88,2.34,16.05,4.5c1.95,0.81,3.97,1.47,6,2.06
			c4.72,1.39,5.94,3.52,4.75,8.36c-0.29,1.19-0.92,1.83-2.17,1.9c-3.79,0.23-5.81,2.63-7.08,5.89c-1.15,2.96-2.2,5.96-3.46,8.87
			c-2.5,5.78-6.9,9.42-13.02,10.8c-8.49,1.91-16.67,1.35-24.07-3.74c-5.17-3.56-7.15-9.14-8.85-14.79c-0.91-3.04-2.31-6.05-0.22-9.4
			c0.98-1.58-0.35-3.21-2.17-3.69c-3.4-0.89-6.91-0.85-10.3-0.12c-2.16,0.47-3.3,2.25-2.26,4.44c0.91,1.92,0.78,3.7,0.27,5.59
			c-1.83,6.82-3.72,13.57-9.77,18.17c-7.22,5.47-25.79,7.26-33.86-2.49c-2.82-3.4-4.2-7.56-5.7-11.59c-1.44-3.88-3.01-7.1-7.73-7.92
			c-2.76-0.48-1.91-3.37-2.12-5.37c-0.16-1.57-0.07-3.04,1.87-3.72c5.91-2.05,11.75-4.29,17.68-6.28
			C90.71,128.24,95.63,128.06,102.87,128.09z M120.77,149.85c-0.05-10.36-2.75-14.59-8.91-16.13c-8.21-2.05-16.42-1.53-24.53,0.53
			c-3.76,0.96-6.08,3.56-6.83,7.42c-1.31,6.72,0.08,12.98,3.41,18.86c1.63,2.88,4.17,4.74,7.23,5.9c6.66,2.52,13.37,2.07,19.68-0.73
			C118.59,162.25,120.68,155.24,120.77,149.85z M164.64,167.47c1.23,0,2.1,0.05,2.96-0.01c6.61-0.4,11.81-3.01,14.84-9.24
			c2.21-4.56,2.76-9.35,2.52-14.32c-0.28-5.61-2.66-8.86-8.13-10.13c-8.09-1.88-16.24-1.79-24.25,0.5
			c-4.98,1.42-7.64,5.01-7.86,10.2c-0.1,2.3-0.16,4.64,0.12,6.91c0.63,5.15,2.63,9.7,6.96,12.8
			C155.72,167.01,160.29,167.63,164.64,167.47z"/>
	</g>
</g>
<path class="st6" d="M191.7,89.29c-1.98-4.94-4.65-9.55-7.88-13.74c2.2-4.38,1.28-10.05-2.32-13.17c-2.68-2.33-6.14-2.63-9-1.13
	c-0.27-2.66-1.44-5.2-3.45-6.95c-2.98-2.59-6.93-2.66-9.94-0.54c-0.55-1.88-1.57-3.6-3.05-4.89c-3.43-2.97-8.12-2.64-11.2,0.54
	c-0.47-0.7-1.02-1.34-1.66-1.9c-3.72-3.23-8.94-2.55-11.96,1.42c-1.6-2.59-4.22-4.28-7.19-4.28c-3.36,0-6.28,2.16-7.77,5.33
	c-1.61-1.94-3.87-3.16-6.39-3.16c-3.74,0-6.93,2.68-8.22,6.45c-1.42-1.13-3.14-1.79-5-1.79c-4.29,0-7.87,3.52-8.66,8.18
	c-0.74-0.23-1.51-0.36-2.32-0.36c-4.88,0-8.83,4.54-8.83,10.15c0,2.71,0.93,5.17,2.44,6.99c-0.44,0.6-0.86,1.2-1.28,1.81
	c-1.5,2.24-2.75,4.63-3.95,7.04c-1.24,2.5-2.48,5.41-3.26,7.76c-0.83,2.53-1.39,4.93-1.7,7.74c-0.11,0.98-0.36,1.94-0.51,2.92
	c-2.03,13.25-1.16,26.88,0.03,40.22c7.38-10.54,10.57-23.49,12.51-36.34c4.73-0.08,8.65-3.57,9.53-8.18
	c0.83,0.23,1.69,0.36,2.59,0.36c4.18,0,7.75-2.68,9.19-6.45c1.59,1.13,3.52,1.79,5.6,1.79c3.76,0,7.03-2.16,8.7-5.33
	c1.8,1.94,4.33,3.16,7.15,3.16c2.96,0,5.61-1.34,7.42-3.46c0.57,0.83,1.27,1.58,2.1,2.22c3.83,2.97,9.09,2.64,12.54-0.54
	c0.53,0.7,1.14,1.34,1.86,1.9c3.34,2.59,7.76,2.66,11.12,0.54c0.61,1.88,1.76,3.6,3.42,4.89c3,2.33,6.88,2.63,10.07,1.13
	c0.3,2.66,1.61,5.2,3.86,6.95c1.58,1.23,3.41,1.88,5.25,2.02c0.51,5.43,0.76,10.9,1.85,16.24c1.52,7.47,5.05,15.04,11.61,18.93
	C194.72,125.52,198.71,106.79,191.7,89.29z"/>
</svg>
