<?xml version="1.0" encoding="utf-8"?>
<!-- Generator: Adobe Illustrator 24.3.0, SVG Export Plug-In . SVG Version: 6.00 Build 0)  -->
<svg version="1.1" xmlns="http://www.w3.org/2000/svg" xmlns:xlink="http://www.w3.org/1999/xlink" x="0px" y="0px"
	 viewBox="0 0 263 310" style="enable-background:new 0 0 263 310;" xml:space="preserve">
<style type="text/css">
	.st0{fill:#DCC8E8;}
	.st1{fill:#AF103D;}
	.st2{fill:#D3A07D;}
	.st3{fill:#F3BD99;}
	.st4{fill:#FDFFFE;}
	.st5{fill:#D86CBF;}
</style>
<g id="Laag_2">
	<rect x="-0.1" y="-0.2" class="st0" width="263" height="310"/>
</g>
<g id="Laag_1">
	<path class="st1" d="M42.65,251.81c0.13,0.17,0.33,0.34,0.64,0.53c2,1.23,5.18,1.65,7.43,2.3c4.96,1.44,9.97,2.71,15.01,3.82
		c10.07,2.22,20.28,3.79,30.53,4.8c20.68,2.05,41.53,1.86,62.24,0.28c20.84-1.59,41.55-4.6,62.11-8.29c0.2-0.04,0.41-0.07,0.61-0.11
		c-10.22-37.65-10.7-77.15-11.16-116.16c-0.17-14.42-0.36-28.96-3.52-43.04c-3.16-14.07-9.55-27.82-20.34-37.38
		c-8.67-7.68-19.74-12.27-31.05-14.73c-28.42-6.17-61.26,2.29-78.21,25.93c-9.76,13.6-13.45,30.55-16.07,47.09
		c-3.38,21.36-5.37,42.91-7.64,64.41c-2.29,21.57-4.87,43.15-9.48,64.36c-0.28,1.27-0.56,2.54-0.85,3.81
		C42.6,250.65,42.22,251.24,42.65,251.81z"/>
	<path class="st2" d="M102.68,238.98h61.66c-0.65,16.69,1.7,32.44,9.08,46.6c-25.08,8.56-51.47,7.97-78.87,0.42
		C100.22,269.36,103.33,253.55,102.68,238.98z"/>
	<path class="st3" d="M209.2,139.64h-12.05v-37.71c0.27-61.89-123.66-65.13-126.28,0v37.71H58.83c-5.11,9.62-5.11,19.24,0,28.87
		h12.05v46.53c6.68,45.06,109.04,58.67,126.28,0v-46.53h12.05C213.54,158.89,213.54,149.26,209.2,139.64z"/>
	<path class="st4" d="M106.8,196.44l56.74,1.61v5.3c-3.64,25.63-54.32,24.33-56.74-1.5L106.8,196.44z"/>
	<path class="st1" d="M109.38,76.84c0.33,2.28,1.14,4.49,2,6.63c6.44,15.98,16.63,30.43,29.49,41.89
		c13.17,11.74,29.92,19.83,47.07,23.73c1.25-3.44,2.97-7.18,6.36-8.55c2.93-1.19,6.25-0.26,9.4-0.58c0.52-0.05,1.07-0.15,1.45-0.51
		c0.43-0.39,0.57-0.99,0.69-1.56c3.05-14.93,2.52-30.79-3-45s-16.57-25.98-30.24-32.72c-8.41-4.15-17.74-5.46-26.7-6.36
		c-6.96-0.7-13.61-2.76-18.55-0.76c-4.02,1.62-8.49,2.43-11.58,5.47c-2.74,2.7-4.46,6.3-5.55,9.99c-0.67,2.26-1.12,4.62-0.98,6.98
		C109.27,75.95,109.31,76.4,109.38,76.84z"/>
	<path class="st1" d="M70.89,139.55c0.43,0.06,2.41,0.84,2.59,0.96c0.96,0.59,1.78,1.42,2.37,2.38c0.29,0.47,0.73,2.52,1.22,2.64
		c0.77,0.18,2.09-2.09,2.54-2.65c3.33-4.19,6.55-8.46,9.65-12.83c6.2-8.73,26.91-27.17,32.11-36.53c3.59-6.47,3.67-0.56,6.76-7.28
		c4.56-9.91-3.15-23.2,0.26-33.56c-14.13-1.39-29.15,1.25-40.38,9.95c-7.56,5.86-13.04,14.21-15.95,23.32
		c-5.48,17.13-2.01,35.64-1.25,53.61C70.81,139.54,70.84,139.54,70.89,139.55z"/>
	<path class="st5" d="M14.96,309.35l230.92,1.02c-18.76-17.74-41.94-29.1-72.46-29.86c-26.68,6.73-52.9,5.76-78.87,0.42
		C65.44,278.13,39.94,292.48,14.96,309.35z"/>
</g>
</svg>
