<?xml version="1.0" encoding="utf-8"?>
<!-- Generator: Adobe Illustrator 24.3.0, SVG Export Plug-In . SVG Version: 6.00 Build 0)  -->
<svg version="1.1" id="Laag_1" xmlns="http://www.w3.org/2000/svg" xmlns:xlink="http://www.w3.org/1999/xlink" x="0px" y="0px"
	 viewBox="0 0 263 310" style="enable-background:new 0 0 263 310;" xml:space="preserve">
<style type="text/css">
	.st0{fill:#EF8FC9;}
	.st1{fill:#EEEAEE;}
	.st2{fill:#E2DCE2;}
	.st3{fill:#FDFFFE;}
</style>
<rect x="0.28" y="0.2" class="st0" width="263" height="310"/>
<path class="st1" d="M101.46,239.39H164c-0.66,16.69,1.73,32.44,9.21,46.6c-25.44,8.56-52.2,7.97-79.99,0.42
	C98.96,269.77,102.12,253.96,101.46,239.39z"/>
<path class="st2" d="M14.75,309.76l230.92,1.02c-18.76-17.74-41.94-29.1-72.46-29.86c-26.68,6.73-52.9,5.76-78.87,0.42
	C65.23,278.54,39.73,292.89,14.75,309.76z"/>
<path class="st1" d="M207.29,139.3h-12.05v-37.71c0.27-61.89-123.66-65.13-126.28,0v37.71H56.92c-5.11,9.62-5.11,19.24,0,28.87
	h12.05v46.53c6.68,45.06,109.04,58.67,126.28,0v-46.53h12.05C211.63,158.55,211.63,148.92,207.29,139.3z"/>
<path class="st1" d="M106.16,180.55c19.22-4.56,36.55-4.28,52.65,0c14.73,1.87,27.12-1.69,36.44-12.38v46.53
	c-13.81,56.65-119.03,47.43-126.28,0v-46.53C81.96,177.95,94.61,184.45,106.16,180.55z"/>
<path class="st1" d="M68.96,139.3c8.44-12.04,11.39-27.23,13.28-41.81c32.48-6.72,66.33-6.72,98.82-0.01
	c1.26,7.52,1.14,15.24,2.65,22.71c1.52,7.47,5.05,15.04,11.61,18.93c-0.29-18.26,3.71-36.99-3.31-54.49
	c-7.75-19.33-26.1-33.72-46.68-36.96c-2.78-0.44-5.58-0.69-8.39-0.77c-2.8-0.08-5.61,0.02-8.41,0.27c-2.8,0.26-5.58,0.68-8.33,1.26
	c-2.76,0.58-5.49,1.31-8.17,2.18c-2.69,0.87-5.33,1.89-7.92,3.04s-5.12,2.43-7.58,3.83c-2.46,1.4-4.85,2.93-7.15,4.57
	c-0.58,0.41-1.15,0.83-1.71,1.25c-0.52,0.39-0.94,0.83-1.43,1.25c-1.02,0.88-1.99,1.81-2.92,2.78c-1.85,1.94-3.52,4.05-5.01,6.28
	c-1.5,2.24-2.75,4.63-3.95,7.04c-1.24,2.5-2.48,5.41-3.26,7.76c-0.83,2.53-1.39,4.93-1.7,7.74c-0.11,0.98-0.36,1.94-0.51,2.92
	C66.9,112.32,67.77,125.95,68.96,139.3z"/>
<path class="st3" d="M103.74,198.59l56.74,1.61v5.3c-3.64,25.63-54.32,24.33-56.74-1.5L103.74,198.59z"/>
</svg>
